<?xml version="1.0" encoding="utf-8"?>
<!-- Generator: Adobe Illustrator 16.0.0, SVG Export Plug-In . SVG Version: 6.00 Build 0)  -->
<!DOCTYPE svg PUBLIC "-//W3C//DTD SVG 1.1//EN" "http://www.w3.org/Graphics/SVG/1.1/DTD/svg11.dtd">
<svg version="1.1" id="Layer_1" xmlns="http://www.w3.org/2000/svg" xmlns:xlink="http://www.w3.org/1999/xlink" x="0px" y="0px"
	 width="2850px" height="2005.158px" viewBox="0 0 2850 2005.158" enable-background="new 0 0 2850 2005.158" xml:space="preserve">
<g>
	<defs>
		<rect id="SVGID_1_" x="-0.003" width="2850.003" height="2005.158"/>
	</defs>
	<clipPath id="SVGID_2_">
		<use xlink:href="#SVGID_1_"  overflow="visible"/>
	</clipPath>
	<linearGradient id="SVGID_3_" gradientUnits="userSpaceOnUse" x1="1424.9985" y1="1370.5039" x2="1424.9985" y2="23.4169">
		<stop  offset="0" style="stop-color:#DEC9F0"/>
		<stop  offset="0.2187" style="stop-color:#C7F0D6"/>
		<stop  offset="0.4453" style="stop-color:#8EBCC7"/>
		<stop  offset="0.5883" style="stop-color:#6F9FBF"/>
		<stop  offset="0.769" style="stop-color:#6872BE"/>
		<stop  offset="0.9154" style="stop-color:#6455BD"/>
		<stop  offset="0.9987" style="stop-color:#624ABD"/>
	</linearGradient>
	<rect x="-0.003" clip-path="url(#SVGID_2_)" fill="url(#SVGID_3_)" width="2850.003" height="2005.158"/>
	<ellipse clip-path="url(#SVGID_2_)" fill="#FFF8DB" cx="1448.334" cy="1192.643" rx="423.719" ry="425.879"/>
	<ellipse clip-path="url(#SVGID_2_)" fill="#FFF8DB" cx="1448.334" cy="1192.643" rx="423.719" ry="425.879"/>
	<path clip-path="url(#SVGID_2_)" fill="#736CB0" d="M859.993,1261.272c10.172-1.531,91.898-0.141,99.421-0.016
		c0.43,0.008,0.737,0,1.159-0.026c7.878-0.556,89.473-7.552,89.473-60.062v-64.434c0-7.102,5.028-13.205,11.97-14.528l11.514-2.19
		c6.95-1.323,11.978-7.426,11.978-14.537v-48.789c0-6.928,4.788-12.931,11.522-14.438l7.364-1.64
		c9.195-2.048,17.91,4.979,17.91,14.437l0,0c0,6.702,4.481,12.572,10.935,14.295l17.943,4.796
		c6.444,1.716,10.934,7.585,10.934,14.288v12.646c0,6.379,4.067,12.04,10.099,14.039l16.774,5.569
		c6.03,2.007,10.098,7.668,10.098,14.046v61.062c0,3.521,1.218,6.877,3.479,9.558c7.438,8.783,26.864,31.064,58.83,63.193"/>
	<path clip-path="url(#SVGID_2_)" fill="#736CB0" d="M1676.226,1247.253l92.588-27.775c0,0,38.851-10.625,38.851-99.961
		c0-19.124-0.1-30.739-0.231-37.783c-0.125-6.978,3.097-13.571,8.63-17.775l26.202-19.891c5.442-4.13,8.641-10.591,8.641-17.435
		v-42.087c0-6.62,2.981-12.889,8.117-17.035l13.005-10.507c3.86-3.122,8.665-4.821,13.619-4.821h24.139
		c5.798,0,11.365,2.332,15.457,6.486l13.917,14.138c4.083,4.155,9.65,6.486,15.457,6.486h3.463c12.012,0,21.744,9.791,21.744,21.864
		v14.42c0,12.098,9.783,21.896,21.828,21.855l0,0c12.044-0.041,21.818,9.749,21.818,21.855v33.836c0,5.08,1.74,9.95,4.938,13.887
		c9.559,11.808,34.609,33.771,88.677,33.771"/>
	<path clip-path="url(#SVGID_2_)" fill="#736CB0" d="M700.979,853.129c0-6.985-3.927-13.371-10.148-16.493l-21.761-10.94
		c-6.213-3.123-10.14-9.509-10.14-16.494v-93.85c0-7.26-4.241-13.846-10.818-16.818l-19.691-8.91
		c-4.896-2.214-8.581-6.469-10.089-11.655l-7.148-24.653c-2.287-7.875-9.469-13.289-17.62-13.289h-50.523
		c-1.731,0-3.455-0.24-5.119-0.724l-54.225-15.828c-1.665-0.482-3.388-0.733-5.119-0.733h-21.082
		c-10.14,0-18.357,8.261-18.357,18.451v253.148c0,6.662-3.57,12.805-9.344,16.069l-3.429,1.94
		c-12.235,6.927-27.361-1.957-27.361-16.069v-29.632c0-3.722-1.119-7.352-3.206-10.424l-18.432-27.067
		c-2.087-3.073-3.213-6.703-3.213-10.424v-54.602c0-10.19-8.21-18.449-18.348-18.449h-35.919c-10.14,0-18.357,8.259-18.357,18.449
		v123.749c0,4.887-1.93,9.583-5.375,13.038l-24.603,24.736c-3.446,3.456-5.375,8.143-5.375,13.039v145.844
		c0,10.184-8.217,18.442-18.357,18.442h-15.847c-10.14,0-18.357,8.26-18.357,18.442v26.676c0,0.749-0.025,1.406-0.116,2.156
		c-1.093,8.793-11.597,64.144-103.082,64.144l593.743,12.971h117.223c0,0-96.837-16.177-96.837-123.748V990.923l-28.032-25.61
		L700.979,853.129z"/>
	<path clip-path="url(#SVGID_2_)" fill="#736CB0" d="M2746.182,1256.077c0,0-104.624-22.255-104.624-88.195V982.156
		c0-4.596-1.647-9.042-4.646-12.522l-28.795-33.404c-2.999-3.48-4.639-7.926-4.639-12.521V803.865
		c0-10.641-8.64-19.233-19.218-19.125l-10.04,0.092c-10.437,0.108-18.846,8.642-18.846,19.133v261.941
		c0,15.594-17.553,24.636-30.144,15.527l-9.924-7.177c-4.971-3.597-7.919-9.374-7.919-15.527V693.164
		c0-10.024-7.688-18.342-17.628-19.083l-18.656-1.383c-9.939-0.732-17.635-9.058-17.635-19.073v-9.451
		c0-9.733-7.265-17.909-16.883-19.008l-80.202-9.176c-8.408-0.965-16.443,3.772-19.707,11.615l-4.001,9.608
		c-3.562,8.551-12.707,13.305-21.711,11.29l0,0c-9.345-2.106-18.796,3.114-22.051,12.164l-4.061,11.315
		c-0.812,2.249-1.192,4.638-1.126,7.027l4.672,168.566c0.116,3.963-1.011,7.867-3.206,11.173l-21.339,32.029
		c-1.615,2.432-2.658,5.204-3.048,8.101l-16.179,121.666c-0.265,1.99-0.845,3.938-1.706,5.745l-24.131,50.505
		c-1.682,3.522-4.332,6.42-7.72,8.336c-14.215,8.05-56.503,28.64-116.941,28.64c-75.108,0,40.458,78.871,40.458,78.871"/>
	<linearGradient id="SVGID_4_" gradientUnits="userSpaceOnUse" x1="-195.0181" y1="1392.4355" x2="1260.9309" y2="1392.4355">
		<stop  offset="0" style="stop-color:#746BA6"/>
		<stop  offset="0.8296" style="stop-color:#411B82"/>
	</linearGradient>
	<path clip-path="url(#SVGID_2_)" fill="url(#SVGID_4_)" d="M171.933,1640.617h153.894c206.281-9.724,308.991-56.44,308.991-56.44
		s-3.604-347.773-108.923-430.391c-35.868-28.143-76.458-38.166-117.288-37.816c-89.389,11.482-408.609,75.5-518.071,203.385
		v349.555l272.617-28.65C166.126,1640.401,168.984,1640.484,171.933,1640.617z"/>
	<linearGradient id="SVGID_5_" gradientUnits="userSpaceOnUse" x1="433.6064" y1="1376.1982" x2="1293.5177" y2="1376.1982">
		<stop  offset="0" style="stop-color:#7ADEE0"/>
		<stop  offset="0.0906" style="stop-color:#74CAD5"/>
		<stop  offset="0.3883" style="stop-color:#608EB4"/>
		<stop  offset="0.6416" style="stop-color:#52629B"/>
		<stop  offset="0.8378" style="stop-color:#49478D"/>
		<stop  offset="0.9529" style="stop-color:#463D87"/>
	</linearGradient>
	<path clip-path="url(#SVGID_2_)" fill="url(#SVGID_5_)" d="M1775.59,1375.279c-193.259-4.753-206.298,9.125-523.331-71.627
		c-317.034-80.762-614.534-207.349-823.001-189.881c-6.925,0.574-13.801,1.324-20.651,2.198c40.83-0.35,81.42,9.674,117.288,37.816
		c63.04,49.456-36.083,116.445,35.041,174.936c130.037,106.929-116.734,100.993-73.891,209.412
		c23.691,59.929-62.062,102.125-323.893,102.125H1775.59V1375.279z"/>
	<linearGradient id="SVGID_6_" gradientUnits="userSpaceOnUse" x1="1469.8555" y1="1392.4355" x2="2925.8037" y2="1392.4355">
		<stop  offset="0" style="stop-color:#746BA6"/>
		<stop  offset="0.8296" style="stop-color:#411B82"/>
	</linearGradient>
	<path clip-path="url(#SVGID_2_)" fill="url(#SVGID_6_)" d="M1836.806,1640.617H1990.7c206.28-9.724,308.99-56.44,308.99-56.44
		s-3.604-347.773-108.923-430.391c-35.868-28.143-76.458-38.166-117.289-37.816c-89.389,11.482-408.609,75.5-518.069,203.385
		v349.555l272.615-28.65C1830.998,1640.401,1833.865,1640.484,1836.806,1640.617z"/>
	<linearGradient id="SVGID_7_" gradientUnits="userSpaceOnUse" x1="2098.4785" y1="1376.1982" x2="2958.3896" y2="1376.1982">
		<stop  offset="0" style="stop-color:#7ADEE0"/>
		<stop  offset="0.0906" style="stop-color:#74CAD5"/>
		<stop  offset="0.3883" style="stop-color:#608EB4"/>
		<stop  offset="0.6416" style="stop-color:#52629B"/>
		<stop  offset="0.8378" style="stop-color:#49478D"/>
		<stop  offset="0.9529" style="stop-color:#463D87"/>
	</linearGradient>
	<path clip-path="url(#SVGID_2_)" fill="url(#SVGID_7_)" d="M3440.462,1375.279c-193.259-4.753-206.298,9.125-523.329-71.627
		c-317.034-80.762-614.535-207.349-823.003-189.881c-6.916,0.574-13.8,1.324-20.651,2.198c40.831-0.35,81.421,9.674,117.289,37.816
		c63.04,49.456-36.084,116.445,35.04,174.936c130.038,106.929-116.733,100.993-73.882,209.412
		c23.684,59.929-62.07,102.125-323.901,102.125h1612.438V1375.279z"/>
	<linearGradient id="SVGID_8_" gradientUnits="userSpaceOnUse" x1="1384.8701" y1="1629.208" x2="-115.7958" y2="1629.2079">
		<stop  offset="0" style="stop-color:#321C63"/>
		<stop  offset="0.2486" style="stop-color:#442574"/>
		<stop  offset="0.6879" style="stop-color:#5F328D"/>
		<stop  offset="0.9467" style="stop-color:#693796"/>
	</linearGradient>
	<path clip-path="url(#SVGID_2_)" fill="url(#SVGID_8_)" d="M1235.625,1307.032c-51.475-40.389-109.725-54.784-168.324-54.277
		c-128.282,16.478-247.111,68.497-356.05,127.879c-19.649,10.715-39.016,21.639-58.019,32.662
		c-110.546,64.158-210.058,130.85-297.973,167.56c-193.209,80.684-355.262,25.81-355.262,25.81v398.493h657.294h57.754
		c4.274,0.208,8.382,0.334,12.608,0.517h220.859c296.026-13.953,443.426-80.995,443.426-80.995S1386.761,1425.594,1235.625,1307.032
		z"/>
	<linearGradient id="SVGID_9_" gradientUnits="userSpaceOnUse" x1="1103.1748" y1="1626.2041" x2="2337.2363" y2="1626.2041">
		<stop  offset="0" style="stop-color:#70CDCF"/>
		<stop  offset="0.0143" style="stop-color:#6FCACE"/>
		<stop  offset="0.3384" style="stop-color:#5E8EAF"/>
		<stop  offset="0.6141" style="stop-color:#51629A"/>
		<stop  offset="0.8276" style="stop-color:#49478C"/>
		<stop  offset="0.9529" style="stop-color:#463D87"/>
	</linearGradient>
	<path clip-path="url(#SVGID_2_)" fill="url(#SVGID_9_)" d="M3029.06,1624.89c-277.354-6.835-296.05,13.098-751.031-102.8
		c-454.982-115.888-881.915-297.55-1181.089-272.498c-9.932,0.832-19.814,1.907-29.639,3.163
		c58.599-0.507,116.849,13.889,168.324,54.277c90.467,70.962-51.789,167.101,50.282,251.042
		c186.616,153.463-167.53,144.938-106.031,300.532c33.997,85.998-89.066,146.552-464.831,146.552H3029.06V1624.89z"/>
	<path clip-path="url(#SVGID_2_)" fill="#190D55" d="M1624.876,1082.742c0.604-3.723-4.573-7.153-7.397-4.889
		c-4.663,3.755-7.133,0.666-10.379-1.548c-3.016-2.049-6.264-3.764-9.411-5.612l-4.424-0.124c-4.879,2.755-9.675,5.66-14.678,8.168
		c-1.441,0.723-3.827,0.956-5.194,0.282c-5.177-2.523-9.286-1.008-9.046,4.512c0.207,4.596,1.897,9.311,3.836,13.589
		c1.383,3.055,2.005,5.445,0.447,8.56c-1.169,2.355-1.648,5.086-2.146,7.701c-2.171,11.438-3.736,23.021-6.619,34.286
		c-0.977,3.838-4.986,7.035-7.944,10.239c-2.228,2.408-4.945,1.691-6.453-0.839c-3.297-5.529-6.742-11.074-9.161-16.993
		c-4.042-9.918-9.377-18.794-18.522-24.896c-9.576-6.385-20.783-8.233-31.975-9.075c-7.97-0.59-14.083-3.445-18.903-9.482
		c-2.27-2.83-4.822-5.444-7.107-8.26c-9.585-11.839-17.653-11.604-31.246-3.396c-10.653,6.426-17.894,16.46-24.653,26.509
		c-4.671,6.936-10.131,12.265-17.925,16.019c-6.636,3.197-12.5,8.025-18.366,12.564c-3.703,2.864-7.289,6.153-10.04,9.882
		c-5.625,7.627-12.798,15.079-15.316,23.729c-2.377,8.11-3.968,39.314-3.446,48.182c3.256,0.699,6.536,1.249,9.825,1.74
		l-5.932-0.166c0.125,0.116,0.216,0.232,0.381,0.357c0.083,0.059-0.323,0.842-0.555,1.258c-1.748,3.13-3.521,6.244-5.476,9.733
		c3.537,0.082,2.618-5.821,6.759-4.854c-1.838,5.028-6.279,6.959-9.875,9.716c0.133,0.273,0.265,0.541,0.398,0.807
		c1.341-0.691,2.767-1.257,3.993-2.098c1.293-0.891,2.385-2.049,4.042-2.647c-2.252,3.18-4.489,6.368-6.834,9.691
		c3.206,1.673-0.92,3.438-0.256,5.327c0.978,3.139-0.613,6.229-0.755,9.301c-0.141,2.839,0.282,5.288,0.688,8.201
		c0.762-2.331,1.433-4.362,2.096-6.386c0.207,0.058,0.423,0.116,0.637,0.175c0.05,1.823,0.1,3.646,0.149,5.479
		c0.282,0.033,0.563,0.066,0.845,0.1c0.348-1.632,0.696-3.271,1.077-5.07c0.298,0.516,0.563,0.966,0.82,1.415
		c0.225-4.43,1.152-8.541,4.73-12.329c0.513,2.646,0.952,4.86,1.391,7.075c0.746-5.653,1.641-11.122,5.286-15.685
		c0.372-0.476,0.853-0.857,1.283-1.282c0.29,0.473,0.846,0.957,0.837,1.423c-0.116,4.745,0.116,9.558-0.605,14.213
		c-1.184,7.551-3.155,14.97-4.514,22.496c-1.119,6.137-2.675,12.073-6.047,17.353c-1.707,2.663-1.541,5.286-0.845,8.116
		c0.629,2.598,1.375,5.212,1.59,7.859c0.464,5.338,0.166,10.766,0.96,16.044c1.483,9.843,0.464,19.583-0.414,29.341
		c-0.281,3.08-0.944,6.194-1.905,9.142c-1.102,3.364-0.1,5.338,3.528,5.378c5.128,0.059,10.264-0.059,15.391-0.199
		c0.911-0.033,1.823-0.559,2.734-0.85c-0.332-0.973-0.448-2.106-1.028-2.88c-0.885-1.183-2.17-2.058-3.147-3.173
		c-0.911-1.041-2.576-2.556-2.319-3.305c1.16-3.373-0.994-6.07-1.243-9.084c-0.58-6.636-1.441-13.322-1.192-19.949
		c0.306-8.142,1.54-16.261,2.542-24.369c0.597-4.787,1.086-9.658,2.386-14.279c2.386-8.482,5.625-16.719,7.952-25.21
		c1.383-5.037,4.391-8.651,7.986-12.215c-0.107,3.514-0.306,6.994-0.969,10.391c-0.911,4.629-2.029,9.233-3.338,13.771
		c-1.135,3.946-2.062,8.144-4.134,11.59c-3.513,5.827-2.519,11.272-0.183,16.901c3.811,9.191,7.97,18.249,11.49,27.541
		c3.339,8.817,6.105,17.852,9.004,26.826c0.315,0.975,0.033,2.291-0.339,3.314c-0.904,2.438-0.058,4.354,2.542,4.555
		c6.33,0.49,12.658,0.855,19.003,1.081c1.02,0.034,2.071-0.897,3.114-1.39c-0.878-1.432-1.449-3.614-2.716-4.154
		c-4.333-1.849-7.688-4.471-10.712-8.219c-5.806-7.193-7.545-15.919-9.973-24.328c-2.27-7.859-3.156-16.118-5.26-24.035
		c-1.682-6.345-0.489-12.123,1.54-18.01c2.684-7.777,5.203-15.62,7.919-23.38c0.912-2.631,1.906-5.328,3.438-7.609
		c2.774-4.146,6.104-7.926,8.93-12.048c1.366-1.998,2.302-4.37,3.098-6.693c0.853-2.489,1.317-5.112,2.046-8.053
		c21.273,20.383,44.748,26.077,71.927,13.522c0.059,0.858,0.323,1.94,0.157,2.956c-1.309,7.968-2.271,16.027-4.208,23.846
		c-1.641,6.627-4.482,12.947-6.677,19.449c-0.597,1.78-1.136,3.713-1.094,5.568c0.232,11.516,1.765,23.072-1.209,34.462
		c-1.375,5.245-3.007,10.425-4.432,15.661c-1.102,4.021-3.487,7.751-2.36,12.307c0.33,1.313-0.622,2.922-0.829,4.421
		c-0.314,2.247-0.621,4.511-0.638,6.769c0,0.566,1.119,1.631,1.714,1.623c5.004-0.059,10.024-0.199,15.003-0.607
		c1.018-0.084,2.525-1.315,2.708-2.232c0.174-0.89-0.87-2.281-1.724-3.072c-2.468-2.264-4.1-4.586-2.865-8.225
		c0.414-1.208,0.099-2.831-0.34-4.105c-1.085-3.18-1.979-6.303-1.309-9.732c0.978-5.046,1.615-10.156,2.767-15.162
		c1.466-6.353,2.328-13.104,5.202-18.799c3.238-6.403,4.979-12.697,5.691-19.79c0.712-7.036,2.568-14.089,4.887-20.791
		c2.402-6.927,6.023-13.431,8.997-20.165c2.353-5.32,3.81-11.217,9.476-14.287c0.845-0.449,1.822-0.658,2.734-0.981
		c0.307,0.89,0.837,1.779,0.869,2.681c0.058,1.714-0.083,3.445-0.298,5.152c-1.416,11.115-2.708,22.238-4.374,33.312
		c-0.969,6.453-2.602,12.787-3.827,19.207c-0.438,2.34-1.201,4.88-0.721,7.087c2.162,9.758,2.146,19.665,2.436,29.539
		c0.232,7.893,0,15.802,0.058,23.712c0.009,1.391,0.175,2.873,0.688,4.155c0.978,2.489,1.906,4.753-0.148,7.251
		c-0.547,0.667-0.225,2.073-0.331,3.664l22.995,0.633c0.149-0.216,0.307-0.434,0.456-0.649c-1.26-0.949-2.419-2.106-3.803-2.806
		c-3.901-1.958-7.141-4.37-7.713-9.134c-0.182-1.498-0.29-3.03-0.712-4.455c-0.969-3.246-2.436-6.368-3.122-9.665
		c-2.403-11.473-1.234-22.905,0.951-34.287c0.779-4.046,2.395-8.184,2.056-12.147c-0.621-7.068,1.582-13.563,2.65-20.272
		c0.514-3.24,1.988-6.328,3.114-9.459c2.154-5.962,4.315-11.914,6.569-17.834c2.038-5.354,4.672-10.532,6.155-16.027
		c0.563-2.089,1.548-3.73,2.741-5.17c0.059-0.292,0.166-0.566,0.232-0.866c1.673-0.616,4.059-0.658,7.554-0.524
		c6.834,0.249,14.473,0.291,20.444-2.364c11.639-5.188,18.324-15.37,22.491-27.16c2.676-7.576,5.483-15.186,9.145-22.338
		c5.948-11.614,9.717-23.453,8.823-36.659c-0.316-4.721-0.341-10.349,1.971-14.137c4.142-6.786,5.095-13.729,4.861-21.14
		c-0.14-4.521,1.492-8.109,3.961-11.931C1622.838,1091.866,1624.147,1087.179,1624.876,1082.742z"/>
	<g opacity="0.2" clip-path="url(#SVGID_2_)">
		<path fill="#FFFFFF" d="M1342.253,1186.457c2.519-8.65,9.692-16.103,15.316-23.729c2.75-3.729,6.337-7.018,10.04-9.883
			c5.865-4.537,11.73-9.366,18.366-12.563c7.794-3.754,13.254-9.083,17.925-16.027c6.759-10.04,14-20.073,24.653-26.501
			c13.593-8.209,21.661-8.442,31.246,3.396c2.285,2.814,4.838,5.43,7.107,8.26c4.82,6.036,10.934,8.891,18.903,9.482
			c11.183,0.842,22.398,2.689,31.975,9.074c9.146,6.104,14.48,14.979,18.522,24.896c2.419,5.921,5.864,11.466,9.161,16.994
			c1.508,2.529,4.226,3.247,6.453,0.84c2.958-3.197,6.968-6.41,7.944-10.241c2.883-11.264,4.448-22.847,6.619-34.285
			c0.497-2.615,0.977-5.346,2.146-7.702c1.558-3.114,0.936-5.503-0.447-8.566c-0.199-0.433-0.373-0.891-0.563-1.34
			c-0.464,1.58-0.829,3.214-1.135,4.82c-2.171,11.438-3.736,23.021-6.619,34.286c-0.977,3.83-4.986,7.043-7.944,10.239
			c-2.228,2.408-4.945,1.691-6.453-0.839c-3.297-5.529-6.742-11.074-9.161-16.993c-4.042-9.918-9.377-18.794-18.522-24.896
			c-9.576-6.385-20.792-8.233-31.975-9.075c-7.97-0.59-14.083-3.445-18.903-9.482c-2.27-2.83-4.822-5.444-7.107-8.26
			c-9.585-11.839-17.653-11.604-31.246-3.396c-10.653,6.426-17.894,16.46-24.653,26.5c-4.671,6.944-10.131,12.273-17.925,16.027
			c-6.636,3.197-12.5,8.025-18.366,12.564c-3.703,2.864-7.289,6.153-10.04,9.882c-5.625,7.627-12.798,15.088-15.316,23.729"/>
		<path fill="#FFFFFF" d="M1573.393,1091.809c1.367,0.666,3.753,0.44,5.194-0.283c5.003-2.507,9.799-5.411,14.678-8.168l4.424,0.124
			c3.147,1.858,6.396,3.564,9.411,5.612c3.246,2.215,5.716,5.303,10.379,1.549c1.449-1.165,3.521-0.807,5.111,0.3
			c1.027-2.665,1.838-5.438,2.286-8.2c0.604-3.723-4.573-7.153-7.397-4.889c-4.663,3.755-7.133,0.666-10.379-1.548
			c-3.016-2.049-6.264-3.755-9.411-5.612l-4.424-0.124c-4.879,2.755-9.675,5.66-14.678,8.168c-1.441,0.723-3.827,0.948-5.194,0.282
			c-5.177-2.523-9.286-1.008-9.046,4.512c0.124,2.758,0.812,5.547,1.731,8.26C1567.71,1090.41,1570.287,1090.301,1573.393,1091.809z
			"/>
	</g>
	<path opacity="0.5" clip-path="url(#SVGID_2_)" fill="#0E004F" d="M1616.211,1518.569c0.497,1.847-4.771,3.47-7.529,2.306
		c-4.564-1.924-7.1-0.425-10.414,0.615c-3.064,0.974-6.369,1.766-9.567,2.648l-4.423-0.009c-4.797-1.434-9.518-2.938-14.455-4.254
		c-1.417-0.375-3.785-0.524-5.178-0.218c-5.243,1.183-9.311,0.367-8.912-2.355c0.322-2.273,2.153-4.58,4.208-6.66
		c1.466-1.491,2.146-2.665,0.687-4.23c-1.109-1.183-1.516-2.539-1.938-3.838c-1.855-5.687-3.098-11.439-5.674-17.052
		c-0.87-1.907-4.787-3.555-7.662-5.179c-2.154-1.224-4.888-0.899-6.47,0.324c-3.454,2.69-7.05,5.379-9.625,8.269
		c-4.316,4.846-9.883,9.158-19.202,12.047c-9.75,3.022-20.999,3.771-32.216,4.021c-7.984,0.184-14.173,1.508-19.16,4.421
		c-2.336,1.366-4.962,2.623-7.322,3.98c-9.916,5.72-17.967,5.487-31.33,1.232c-10.47-3.338-17.428-8.4-23.915-13.463
		c-4.474-3.498-9.791-6.212-17.479-8.184c-6.544-1.675-12.276-4.148-18.009-6.479c-3.629-1.466-7.124-3.147-9.758-5.028
		c-5.417-3.856-12.376-7.644-14.67-11.948c-2.145-4.047-2.875-19.508-2.113-23.878c3.281-0.301,6.569-0.534,9.866-0.726h-5.922
		c0.116-0.059,0.215-0.108,0.389-0.175c0.083-0.023-0.306-0.416-0.521-0.633c-1.673-1.564-3.346-3.14-5.219-4.887
		c3.546,0.008,2.468,2.914,6.635,2.497c-1.707-2.514-6.088-3.529-9.601-4.945c0.132-0.133,0.281-0.259,0.414-0.391
		c1.326,0.357,2.733,0.657,3.935,1.09c1.267,0.458,2.328,1.05,3.968,1.375c-2.162-1.616-4.316-3.215-6.569-4.896
		c3.255-0.783-0.821-1.716-0.108-2.64c1.061-1.541-0.43-3.09-0.497-4.614c-0.058-1.405,0.43-2.604,0.911-4.036
		c0.696,1.165,1.309,2.173,1.922,3.18c0.216-0.017,0.431-0.051,0.638-0.075c0.1-0.898,0.207-1.807,0.307-2.705
		c0.281-0.018,0.563-0.026,0.845-0.034c0.298,0.809,0.605,1.624,0.944,2.514c0.307-0.248,0.58-0.466,0.845-0.682
		c0.116,2.189,0.92,4.237,4.399,6.161c0.588-1.299,1.085-2.382,1.582-3.472c0.597,2.806,1.342,5.52,4.855,7.826
		c0.355,0.241,0.828,0.44,1.242,0.658c0.307-0.232,0.879-0.467,0.879-0.699c0.016-2.348,0.381-4.721-0.216-7.035
		c-0.969-3.748-2.733-7.452-3.894-11.19c-0.944-3.048-2.336-6.004-5.566-8.668c-1.624-1.34-1.392-2.63-0.622-4.021
		c0.704-1.274,1.517-2.556,1.815-3.864c0.604-2.631,0.463-5.319,1.399-7.918c1.756-4.845,1.002-9.674,0.39-14.52
		c-0.191-1.524-0.779-3.072-1.657-4.548c-0.994-1.682,0.049-2.638,3.678-2.604c5.136,0.041,10.255,0.175,15.383,0.324
		c0.92,0.016,1.806,0.299,2.709,0.449c-0.356,0.482-0.497,1.033-1.11,1.414c-0.912,0.567-2.22,0.983-3.231,1.525
		c-0.944,0.499-2.642,1.225-2.402,1.599c1.061,1.682-1.16,2.987-1.508,4.471c-0.746,3.28-1.806,6.569-1.739,9.85
		c0.091,4.029,1.102,8.068,1.88,12.09c0.464,2.372,0.82,4.785,1.989,7.093c2.154,4.229,5.16,8.352,7.256,12.581
		c1.234,2.515,4.15,4.345,7.646,6.152c-0.009-1.739-0.108-3.464-0.679-5.146c-0.787-2.307-1.782-4.595-2.967-6.86
		c-1.027-1.974-1.83-4.055-3.81-5.787c-3.354-2.938-2.212-5.62,0.281-8.367c4.076-4.488,8.466-8.908,12.251-13.455
		c3.588-4.305,6.594-8.732,9.734-13.13c0.348-0.482,0.099-1.131-0.249-1.647c-0.836-1.216,0.066-2.148,2.676-2.215
		c6.337-0.151,12.674-0.241,19.011-0.259c1.027-0.009,2.054,0.475,3.09,0.725c-0.927,0.7-1.548,1.772-2.833,2.022
		c-4.382,0.85-7.812,2.099-10.935,3.906c-6.005,3.479-7.977,7.767-10.644,11.89c-2.486,3.854-3.596,7.926-5.915,11.805
		c-1.856,3.115-0.829,5.995,1.043,8.927c2.468,3.889,4.764,7.801,7.266,11.682c0.845,1.306,1.764,2.653,3.23,3.811
		c2.66,2.091,5.89,4.006,8.599,6.088c1.317,1.007,2.179,2.196,2.907,3.355c0.788,1.239,1.176,2.548,1.822,4.004
		c21.837-9.774,45.453-12.247,72.275-5.645c0.075-0.425,0.373-0.958,0.24-1.457c-1.094-3.964-1.838-7.96-3.545-11.855
		c-1.458-3.297-4.125-6.47-6.139-9.71c-0.555-0.89-1.035-1.856-0.953-2.771c0.556-5.693,2.403-11.389-0.256-17.06
		c-1.226-2.615-2.709-5.195-3.992-7.811c-0.986-2.006-3.272-3.88-2.022-6.118c0.365-0.649-0.537-1.449-0.712-2.198
		c-0.248-1.115-0.489-2.241-0.439-3.356c0.009-0.273,1.16-0.789,1.757-0.773c5.003,0.101,10.007,0.241,14.977,0.517
		c1.011,0.058,2.485,0.683,2.643,1.14c0.148,0.441-0.928,1.117-1.806,1.491c-2.526,1.09-4.226,2.214-3.09,4.029
		c0.381,0.601,0.017,1.398-0.447,2.032c-1.177,1.548-2.154,3.08-1.591,4.787c0.845,2.506,1.342,5.046,2.353,7.534
		c1.292,3.164,1.972,6.52,4.688,9.375c3.057,3.215,4.623,6.345,5.145,9.866c0.521,3.488,2.179,7.002,4.316,10.35
		c2.203,3.464,5.649,6.728,8.432,10.107c2.203,2.664,3.497,5.595,9.079,7.193c0.829,0.241,1.798,0.359,2.7,0.533
		c0.332-0.441,0.896-0.874,0.944-1.315c0.108-0.849,0.018-1.707-0.148-2.557c-1.11-5.512-2.104-11.031-3.463-16.535
		c-0.786-3.204-2.245-6.36-3.288-9.548c-0.381-1.166-1.068-2.432-0.522-3.515c2.419-4.796,2.676-9.692,3.247-14.57
		c0.448-3.905,0.431-7.817,0.704-11.724c0.042-0.691,0.257-1.423,0.804-2.048c1.044-1.216,2.029-2.331,0.05-3.589
		c-0.53-0.342-0.165-1.023-0.231-1.822l23.004,0.024c0.148,0.108,0.289,0.216,0.438,0.325c-1.283,0.449-2.477,1.007-3.876,1.332
		c-3.961,0.916-7.257,2.063-7.97,4.412c-0.215,0.732-0.364,1.489-0.829,2.188c-1.06,1.592-2.617,3.115-3.388,4.731
		c-2.716,5.644-1.863,11.313,0.009,16.967c0.663,2.015,2.17,4.088,1.715,6.036c-0.804,3.488,1.209,6.729,2.096,10.066
		c0.422,1.607,1.806,3.156,2.85,4.722c1.988,2.98,3.992,5.952,6.081,8.916c1.888,2.673,4.382,5.271,5.707,8.009
		c0.505,1.042,1.441,1.874,2.601,2.599c0.05,0.151,0.148,0.283,0.207,0.433c1.656,0.325,4.034,0.383,7.538,0.376
		c6.834-0.034,14.472,0.058,20.361,1.456c11.498,2.739,17.901,7.866,21.736,13.755c2.469,3.788,5.07,7.584,8.532,11.181
		c5.624,5.828,9.07,11.74,7.812,18.251c-0.455,2.332-0.621,5.112,1.582,7.02c3.944,3.42,4.714,6.86,4.274,10.532
		c-0.265,2.23,1.268,4.021,3.629,5.951C1614.431,1514.022,1615.614,1516.361,1616.211,1518.569z"/>
	<g clip-path="url(#SVGID_2_)">
		<path opacity="0.2" fill="#E2CFF4" d="M-54.328,347.423l765.116,51.122c0.306,0.017,0.613,0.05,0.918,0.1l388.928,60.437
			c11.332,1.765,12.209,17.834,1.143,20.839l0,0c-11.962,3.248-9.626,20.965,2.767,20.965h242.994
			c12.74,0,14.662,18.434,2.203,21.098L834.214,632.303c-15.375,3.288-31.271,3.247-46.629-0.133l-227.868-50.097
			c-13.477-2.964-27.212-4.554-41.012-4.754l-573.033-8.226"/>
		<path opacity="0.2" fill="#E2CFF4" d="M869.271,278.11l498.213,69.046c9.345,1.299,12.492,13.289,4.987,19.05l-56.611,43.444
			c-8.971,6.877-2.484,21.206,8.565,18.925l518.427-107.013c2.337-0.482,4.771-0.159,6.908,0.916l144.543,73.018
			c13.609,6.886,29.026,9.317,44.077,6.96l406.1-63.427c12.442-1.947,11.763-20.164-0.778-21.172l-759.564-60.945
			c-0.282-0.025-0.563-0.033-0.845-0.033h-406.448H870.72C857.508,256.879,856.183,276.294,869.271,278.11z"/>
		<path opacity="0.2" fill="#E2CFF4" d="M1802.784,439.874l196.68,52.004c1.193,0.316,2.428,0.425,3.646,0.316l354.426-31.896
			l738.607-52.245c6.875-0.484,12.374,5.627,11.198,12.455l-53.146,309.856c-0.681,3.93-3.479,7.152-7.257,8.359l-215.146,68.472
			c-75.331,23.979-157.157,15.786-226.31-22.646l-224.174-124.606c-26.392-14.67-56.925-19.999-86.696-15.12l-149.106,24.437
			c-41.882,6.86-84.775-2.041-120.511-25.044c-106.405-68.515-345.787-182.646-348.893-184.544
			c-23.327-14.203,51.508-23.413,72.995-24.928C1767.147,433.48,1785.281,435.245,1802.784,439.874z"/>
		<path opacity="0.2" fill="#E2CFF4" d="M322.928,185.235c-12.318,3.255-9.518,21.572,3.206,20.964l442.341-21.165h214.796
			c10.984,0,14.729-14.703,5.119-20.015l-64.845-35.818c-1.565-0.866-3.321-1.314-5.111-1.314H540.823
			c-0.912,0-1.823,0.117-2.701,0.35L322.928,185.235z"/>
		<path opacity="0.2" fill="#E2CFF4" d="M1806.943,671.4h105.227c1.285,0,2.553,0.233,3.762,0.683l247.368,93.99
			c1.192,0.458,2.468,0.691,3.743,0.691h50.266c12.377,0,14.729,17.684,2.783,20.957l-131.9,36.134
			c-2.37,0.649-4.888,0.449-7.133-0.558l-166.95-75.166l-111.929-56.541C1792.182,686.545,1795.752,671.4,1806.943,671.4z"/>
		<path opacity="0.2" fill="#E2CFF4" d="M260.469,762.003l308.054-42.012c1.341-0.184,2.7-0.117,4.009,0.216l183.359,46.234
			c0.845,0.215,1.715,0.324,2.584,0.324h208.924c12.807,0,14.645,18.575,2.096,21.114l-391.29,79.204
			c-1.316,0.267-2.684,0.275-4.009,0.034l-227.752-41.997c-0.936-0.174-1.847-0.473-2.708-0.891l-86.457-42.053
			C247.811,777.572,250.056,763.427,260.469,762.003z"/>
		<path opacity="0.2" fill="#E2CFF4" d="M2089.615,182.737l221.515,40.223c0.265,0.049,0.53,0.091,0.786,0.107l247.873,25.877
			c0.365,0.042,0.737,0.066,1.103,0.066h174.661c9.808,0,14.364-12.247,6.958-18.717l-28.661-25.052
			c-1.564-1.374-3.496-2.248-5.559-2.523l-306.886-41.046c-0.464-0.067-0.928-0.1-1.392-0.1h-167.662h-140.855
			C2078.557,161.573,2076.884,180.423,2089.615,182.737z"/>
	</g>
	<g clip-path="url(#SVGID_2_)">
		<polygon opacity="0.93" fill="#FFFFFF" points="2611.911,506.831 2609.707,510.052 2607.347,506.931 2609.234,510.894 
			2607.521,514.957 2609.807,511.884 2612.076,514.856 2610.279,511.043 		"/>
		<polygon opacity="0.93" fill="#FFFFFF" points="1518.058,1028.099 1514.155,1031.354 1510.063,1028.273 1513.311,1032.194 
			1510.246,1036.3 1514.289,1033.185 1518.231,1036.125 1515.133,1032.345 		"/>
		<polygon opacity="0.93" fill="#FFFFFF" points="2341.846,1015.685 2334.357,1021.937 2326.521,1016.025 2332.742,1023.552 
			2326.86,1031.429 2334.623,1025.451 2342.193,1031.087 2336.238,1023.827 		"/>
		<polygon opacity="0.93" fill="#FFFFFF" points="2076.553,1073.757 2072.643,1077.013 2068.559,1073.932 2071.797,1077.863 
			2068.732,1081.966 2072.783,1078.845 2076.727,1081.783 2073.62,1078.003 		"/>
		<polygon opacity="0.93" fill="#FFFFFF" points="2364.428,638.463 2360.525,641.719 2356.442,638.638 2359.688,642.559 
			2356.623,646.664 2360.666,643.55 2364.609,646.49 2361.512,642.701 		"/>
		<polygon opacity="0.93" fill="#FFFFFF" points="821.896,864.869 817.986,868.125 813.902,865.044 817.149,868.974 
			814.084,873.078 818.127,869.956 822.07,872.903 818.972,869.115 		"/>
		<polygon opacity="0.93" fill="#FFFFFF" points="1703.396,476.391 1699.487,479.647 1695.402,476.566 1698.65,480.496 
			1695.585,484.601 1699.628,481.479 1703.57,484.417 1700.473,480.638 		"/>
		<polygon opacity="0.93" fill="#FFFFFF" points="1942.837,533.207 1939.59,529.277 1942.654,525.182 1938.745,528.436 
			1934.669,525.356 1937.768,529.428 1934.843,533.391 1938.613,530.268 		"/>
		<polygon opacity="0.93" fill="#FFFFFF" points="159.325,877.008 156.078,873.078 159.143,868.974 155.233,872.238 
			151.157,869.157 154.256,873.22 151.331,877.183 155.1,874.069 		"/>
		<polygon opacity="0.93" fill="#FFFFFF" points="189.792,1113.131 186.546,1109.209 189.61,1105.104 185.708,1108.359 
			181.625,1105.279 184.723,1109.343 181.799,1113.306 185.568,1110.191 		"/>
		<polygon opacity="0.93" fill="#FFFFFF" points="407.662,861.706 404.423,857.775 407.488,853.67 403.579,856.935 399.494,853.854 
			402.601,857.917 399.668,861.88 403.437,858.766 		"/>
		<polygon opacity="0.93" fill="#FFFFFF" points="465.896,891.178 462.658,887.258 465.722,883.144 461.812,886.409 
			457.729,883.327 460.834,887.391 457.902,891.354 461.671,888.24 		"/>
		<polygon opacity="0.93" fill="#FFFFFF" points="679.74,716.834 676.501,712.913 679.566,708.809 675.655,712.063 671.572,708.983 
			674.679,713.055 671.754,717.019 675.515,713.896 		"/>
		<polygon opacity="0.93" fill="#FFFFFF" points="2575.611,1148.815 2572.373,1144.887 2575.438,1140.781 2571.535,1144.044 
			2567.443,1140.964 2570.551,1145.027 2567.626,1148.989 2571.387,1145.877 		"/>
		<polygon opacity="0.93" fill="#FFFFFF" points="2732.023,673.606 2728.777,669.685 2731.842,665.581 2727.932,668.836 
			2723.856,665.755 2726.954,669.819 2724.021,673.79 2727.8,670.668 		"/>
		<polygon opacity="0.93" fill="#FFFFFF" points="2796.521,704.171 2793.281,700.241 2796.347,696.146 2792.445,699.4 
			2788.354,696.32 2791.459,700.384 2788.536,704.346 2792.297,701.232 		"/>
		<polygon opacity="0.93" fill="#FFFFFF" points="2563.542,792.875 2560.304,788.946 2563.368,784.849 2559.459,788.104 
			2555.374,785.024 2558.481,789.087 2555.548,793.05 2559.317,789.937 		"/>
		<polygon opacity="0.93" fill="#FFFFFF" points="2292.657,424.005 2289.41,420.083 2292.476,415.979 2288.564,419.235 
			2284.49,416.154 2287.588,420.225 2284.664,424.188 2288.433,421.066 		"/>
		<polygon opacity="0.93" fill="#FFFFFF" points="2692.618,320.805 2689.379,316.884 2692.444,312.771 2688.535,316.034 
			2684.451,312.954 2687.557,317.017 2684.625,320.98 2688.395,317.866 		"/>
		<polygon opacity="0.93" fill="#FFFFFF" points="1054.908,1103.23 1049.06,1108.11 1042.954,1103.497 1047.801,1109.376 
			1043.22,1115.512 1049.275,1110.85 1055.173,1115.253 1050.534,1109.584 		"/>
		<polygon opacity="0.93" fill="#FFFFFF" points="2216.049,800.069 2210.21,804.94 2204.104,800.334 2208.951,806.205 
			2204.369,812.341 2210.417,807.679 2216.314,812.074 2211.676,806.413 		"/>
		<polygon opacity="0.93" fill="#FFFFFF" points="1375.503,341.978 1371.594,345.241 1367.51,342.161 1370.749,346.083 
			1367.684,350.187 1371.734,347.073 1375.677,350.004 1372.579,346.224 		"/>
		<polygon opacity="0.93" fill="#FFFFFF" points="1042.143,369.878 1039.947,373.1 1037.587,369.979 1039.468,373.933 
			1037.761,378.005 1040.039,374.932 1042.317,377.904 1040.511,374.09 		"/>
		<polygon opacity="0.93" fill="#FFFFFF" points="1289.221,113.798 1285.31,117.054 1281.235,113.981 1284.474,117.903 
			1281.409,122.008 1285.459,118.886 1289.403,121.825 1286.296,118.044 		"/>
		<polygon opacity="0.93" fill="#FFFFFF" points="772.086,878.732 764.59,884.977 756.762,879.065 762.975,886.6 757.092,894.476 
			764.863,888.489 772.426,894.134 766.47,886.875 		"/>
		<polygon opacity="0.93" fill="#FFFFFF" points="506.784,936.805 502.883,940.06 498.791,936.98 502.038,940.91 498.973,945.005 
			503.015,941.893 506.958,944.831 503.861,941.051 		"/>
		<polygon opacity="0.93" fill="#FFFFFF" points="794.668,501.502 790.757,504.765 786.683,501.686 789.921,505.607 
			786.856,509.712 790.907,506.598 794.85,509.537 791.744,505.749 		"/>
		<polygon opacity="0.93" fill="#FFFFFF" points="1263.466,773.542 1257.626,778.421 1251.513,773.809 1256.367,779.687 
			1251.778,785.823 1257.833,781.16 1263.731,785.557 1259.093,779.895 		"/>
		<polygon opacity="0.93" fill="#FFFFFF" points="1575.174,639.279 1571.927,635.35 1574.992,631.244 1571.082,634.5 
			1567.006,631.418 1570.104,635.491 1567.18,639.454 1570.949,636.332 		"/>
		<polygon opacity="0.93" fill="#FFFFFF" points="1835.157,555.004 1831.918,551.075 1834.983,546.978 1831.073,550.234 
			1826.99,547.153 1830.096,551.225 1827.164,555.188 1830.933,552.065 		"/>
		<polygon opacity="0.93" fill="#FFFFFF" points="1877.412,983.056 1874.182,979.134 1877.238,975.029 1873.337,978.284 
			1869.254,975.204 1872.351,979.274 1869.428,983.239 1873.196,980.116 		"/>
		<polygon opacity="0.93" fill="#FFFFFF" points="1757.184,815.938 1753.936,812.008 1757.001,807.903 1753.091,811.159 
			1749.016,808.078 1752.113,812.15 1749.189,816.113 1752.958,812.991 		"/>
		<polygon opacity="0.93" fill="#FFFFFF" points="1804.871,783.617 1801.633,779.687 1804.697,775.583 1800.788,778.838 
			1796.705,775.758 1799.811,779.82 1796.879,783.792 1800.647,780.669 		"/>
		<polygon opacity="0.93" fill="#FFFFFF" points="1524.237,978.959 1520.998,975.029 1524.063,970.925 1520.153,974.18 
			1516.069,971.099 1519.176,975.17 1516.243,979.134 1520.012,976.011 		"/>
		<polygon opacity="0.93" fill="#FFFFFF" points="1330.489,1076.562 1327.243,1072.635 1330.308,1068.528 1326.406,1071.793 
			1322.322,1068.712 1325.421,1072.774 1322.496,1076.737 1326.266,1073.625 		"/>
		<polygon opacity="0.93" fill="#FFFFFF" points="1005.852,1011.854 1002.604,1007.933 1005.669,1003.829 1001.769,1007.084 
			997.684,1004.004 1000.782,1008.075 997.859,1012.038 1001.628,1008.915 		"/>
		<polygon opacity="0.93" fill="#FFFFFF" points="1162.257,536.654 1159.018,532.724 1162.083,528.628 1158.172,531.884 
			1154.089,528.803 1157.187,532.866 1154.263,536.829 1158.032,533.715 		"/>
		<polygon opacity="0.93" fill="#FFFFFF" points="1226.761,567.21 1223.515,563.289 1226.58,559.184 1222.678,562.448 
			1218.594,559.358 1221.692,563.43 1218.768,567.394 1222.537,564.28 		"/>
		<polygon opacity="0.93" fill="#FFFFFF" points="993.774,655.915 990.535,651.993 993.601,647.888 989.699,651.152 
			985.607,648.062 988.713,652.135 985.789,656.098 989.55,652.984 		"/>
		<polygon opacity="0.93" fill="#FFFFFF" points="722.89,287.053 719.651,283.122 722.716,279.017 718.805,282.281 714.722,279.201 
			717.829,283.265 714.896,287.227 718.665,284.113 		"/>
		<polygon opacity="0.93" fill="#FFFFFF" points="1122.852,183.853 1119.612,179.922 1122.677,175.818 1118.775,179.082 
			1114.684,175.994 1117.789,180.064 1114.866,184.028 1118.635,180.905 		"/>
		<polygon opacity="0.93" fill="#FFFFFF" points="646.291,663.108 640.442,667.987 634.336,663.374 639.191,669.252 
			634.602,675.389 640.658,670.726 646.556,675.122 641.917,669.46 		"/>
		<polygon opacity="0.93" fill="#FFFFFF" points="932.624,171.713 928.714,174.977 924.639,171.896 927.878,175.818 
			924.813,179.922 928.863,176.809 932.806,179.748 929.7,175.959 		"/>
		<polygon opacity="0.93" fill="#FFFFFF" points="590.848,321.579 588.644,324.802 586.283,321.68 588.172,325.643 586.466,329.714 
			588.743,326.633 591.021,329.615 589.215,325.801 		"/>
		<polygon opacity="0.93" fill="#FFFFFF" points="837.925,65.509 834.016,68.764 829.939,65.684 833.179,69.605 830.113,73.709 
			834.165,70.595 838.099,73.535 835.001,69.755 		"/>
		<polygon opacity="0.93" fill="#FFFFFF" points="320.791,830.434 313.294,836.686 305.458,830.775 311.679,838.301 
			305.798,846.178 313.559,840.199 321.122,845.836 315.174,838.576 		"/>
		<polygon opacity="0.93" fill="#FFFFFF" points="55.489,888.507 51.579,891.771 47.496,888.689 50.743,892.611 47.678,896.716 
			51.72,893.602 55.663,896.541 52.565,892.752 		"/>
		<polygon opacity="0.93" fill="#FFFFFF" points="343.373,453.212 339.462,456.467 335.378,453.387 338.626,457.308 
			335.561,461.421 339.604,458.298 343.546,461.238 340.439,457.458 		"/>
		<polygon opacity="0.93" fill="#FFFFFF" points="812.171,725.252 806.323,730.123 800.218,725.519 805.072,731.388 
			800.482,737.532 806.53,732.862 812.436,737.267 807.789,731.597 		"/>
		<polygon opacity="0.93" fill="#FFFFFF" points="1123.87,590.98 1120.631,587.059 1123.696,582.946 1119.786,586.209 
			1115.71,583.129 1118.809,587.192 1115.884,591.155 1119.653,588.041 		"/>
		<polygon opacity="0.93" fill="#FFFFFF" points="1383.861,506.714 1380.623,502.784 1383.688,498.68 1379.778,501.935 
			1375.694,498.854 1378.8,502.926 1375.868,506.889 1379.637,503.774 		"/>
		<polygon opacity="0.93" fill="#FFFFFF" points="1426.117,934.765 1422.878,930.836 1425.942,926.731 1422.042,929.994 
			1417.949,926.906 1421.055,930.977 1418.132,934.94 1421.892,931.827 		"/>
		<polygon opacity="0.93" fill="#FFFFFF" points="1305.879,767.639 1302.64,763.718 1305.705,759.605 1301.795,762.869 
			1297.711,759.788 1300.818,763.851 1297.886,767.814 1301.655,764.7 		"/>
		<polygon opacity="0.93" fill="#FFFFFF" points="1353.568,735.318 1350.33,731.388 1353.395,727.284 1349.492,730.547 
			1345.4,727.466 1348.507,731.529 1345.583,735.493 1349.352,732.379 		"/>
		<polygon opacity="0.93" fill="#FFFFFF" points="1072.933,930.661 1069.694,926.731 1072.759,922.625 1068.858,925.889 
			1064.766,922.81 1067.872,926.872 1064.948,930.836 1068.709,927.722 		"/>
		<polygon opacity="0.93" fill="#FFFFFF" points="879.195,1028.265 875.947,1024.343 879.013,1020.238 875.103,1023.494 
			871.027,1020.414 874.125,1024.484 871.201,1028.448 874.97,1025.326 		"/>
		<polygon opacity="0.93" fill="#FFFFFF" points="554.556,963.564 551.309,959.635 554.374,955.53 550.464,958.793 546.389,955.712 
			549.487,959.776 546.563,963.739 550.332,960.625 		"/>
		<polygon opacity="0.93" fill="#FFFFFF" points="710.953,488.364 707.714,484.434 710.779,480.329 706.876,483.584 
			702.793,480.504 705.892,484.575 702.967,488.538 706.736,485.417 		"/>
		<polygon opacity="0.93" fill="#FFFFFF" points="775.467,518.92 772.219,514.99 775.284,510.894 771.374,514.149 767.298,511.069 
			770.397,515.14 767.472,519.103 771.241,515.98 		"/>
		<polygon opacity="0.93" fill="#FFFFFF" points="542.479,607.624 539.24,603.694 542.305,599.597 538.404,602.853 534.312,599.772 
			537.417,603.843 534.493,607.807 538.254,604.685 		"/>
		<polygon opacity="0.93" fill="#FFFFFF" points="271.594,238.754 268.355,234.833 271.42,230.728 267.511,233.983 263.426,230.902 
			266.533,234.974 263.6,238.937 267.369,235.814 		"/>
		<polygon opacity="0.93" fill="#FFFFFF" points="671.556,135.554 668.317,131.633 671.382,127.528 667.48,130.784 663.388,127.703 
			666.495,131.766 663.57,135.737 667.331,132.615 		"/>
		<polygon opacity="0.93" fill="#FFFFFF" points="194.995,614.817 189.146,619.688 183.042,615.084 187.887,620.955 
			183.307,627.098 189.362,622.428 195.26,626.832 190.621,621.162 		"/>
		<polygon opacity="0.93" fill="#FFFFFF" points="2022.815,763.001 2026.718,759.746 2030.81,762.818 2027.562,758.897 
			2030.627,754.792 2026.586,757.915 2022.642,754.976 2025.74,758.755 		"/>
		<polygon opacity="0.93" fill="#FFFFFF" points="2356.177,735.111 2358.371,731.879 2360.732,735.002 2358.844,731.047 
			2360.55,726.976 2358.28,730.047 2355.994,727.075 2357.801,730.889 		"/>
		<polygon opacity="0.93" fill="#FFFFFF" points="2109.091,991.182 2113,987.925 2117.085,991.007 2113.846,987.077 
			2116.911,982.972 2112.859,986.094 2108.917,983.155 2112.023,986.935 		"/>
		<polygon opacity="0.93" fill="#FFFFFF" points="2626.232,226.256 2633.73,220.004 2641.558,225.915 2635.337,218.38 
			2641.218,210.512 2633.457,216.49 2625.894,210.845 2631.842,218.114 		"/>
		<polygon opacity="0.93" fill="#FFFFFF" points="2603.643,603.478 2607.554,600.214 2611.638,603.303 2608.398,599.373 
			2611.464,595.269 2607.412,598.382 2603.478,595.443 2606.576,599.232 		"/>
		<polygon opacity="0.93" fill="#FFFFFF" points="2134.853,331.438 2140.692,326.559 2146.798,331.171 2141.951,325.293 
			2146.533,319.157 2140.485,323.82 2134.588,319.423 2139.227,325.085 		"/>
		<polygon opacity="0.93" fill="#FFFFFF" points="1823.146,465.701 1826.385,469.63 1823.32,473.735 1827.229,470.48 
			1831.314,473.56 1828.207,469.489 1831.141,465.526 1827.371,468.649 		"/>
		<polygon opacity="0.93" fill="#FFFFFF" points="1563.162,549.976 1566.4,553.906 1563.336,558.001 1567.238,554.746 
			1571.33,557.827 1568.225,553.764 1571.147,549.801 1567.387,552.915 		"/>
		<polygon opacity="0.93" fill="#FFFFFF" points="1520.898,121.925 1524.146,125.847 1521.081,129.951 1524.983,126.696 
			1529.066,129.776 1525.968,125.705 1528.884,121.742 1525.123,124.864 		"/>
		<polygon opacity="0.93" fill="#FFFFFF" points="1641.137,289.05 1644.376,292.972 1641.311,297.077 1645.221,293.821 
			1649.305,296.901 1646.207,292.838 1649.13,288.875 1645.361,291.99 		"/>
		<polygon opacity="0.93" fill="#FFFFFF" points="1593.447,321.372 1596.687,325.293 1593.621,329.398 1597.531,326.143 
			1601.615,329.223 1598.509,325.16 1601.433,321.197 1597.673,324.31 		"/>
		<polygon opacity="0.93" fill="#FFFFFF" points="1874.083,126.022 1877.322,129.951 1874.257,134.055 1878.166,130.8 
			1882.25,133.88 1879.145,129.818 1882.067,125.847 1878.307,128.968 		"/>
		<polygon opacity="0.93" fill="#FFFFFF" points="2067.829,28.417 2071.068,32.347 2068.003,36.451 2071.913,33.188 
			2075.998,36.268 2072.891,32.205 2075.824,28.242 2072.046,31.356 		"/>
		<polygon opacity="0.93" fill="#FFFFFF" points="2392.467,93.126 2395.706,97.047 2392.642,101.16 2396.552,97.896 
			2400.635,100.977 2397.529,96.906 2400.461,92.942 2396.692,96.064 		"/>
		<polygon opacity="0.93" fill="#FFFFFF" points="2236.063,568.327 2239.302,572.255 2236.237,576.353 2240.146,573.096 
			2244.231,576.178 2241.133,572.115 2244.049,568.151 2240.288,571.265 		"/>
		<polygon opacity="0.93" fill="#FFFFFF" points="2171.558,537.77 2174.797,541.691 2171.731,545.796 2175.642,542.541 
			2179.726,545.621 2176.619,541.55 2179.552,537.586 2175.774,540.709 		"/>
		<polygon opacity="0.93" fill="#FFFFFF" points="2404.537,449.066 2407.783,452.987 2404.719,457.092 2408.621,453.827 
			2412.704,456.917 2409.607,452.846 2412.53,448.883 2408.762,452.005 		"/>
		<polygon opacity="0.93" fill="#FFFFFF" points="2675.43,817.928 2678.669,821.857 2675.604,825.962 2679.514,822.698 
			2683.598,825.779 2680.491,821.716 2683.416,817.753 2679.654,820.866 		"/>
		<polygon opacity="0.93" fill="#FFFFFF" points="2275.46,921.127 2278.707,925.057 2275.643,929.162 2279.545,925.907 
			2283.628,928.987 2280.529,924.916 2283.445,920.952 2279.686,924.074 		"/>
		<polygon opacity="0.93" fill="#FFFFFF" points="2752.021,441.873 2757.869,436.993 2763.982,441.605 2759.129,435.728 
			2763.717,429.592 2757.662,434.254 2751.756,429.858 2756.403,435.52 		"/>
	</g>
	<polyline opacity="0.5" clip-path="url(#SVGID_2_)" fill="#0E004F" points="1788.935,1843.161 1804.417,1932.524 
		1752.561,1955.152 1728.446,2022.351 1733.359,2021.337 1743.714,2011.285 1748.088,2018.305 1760.331,2015.783 1774.686,1962.097 
		1796.497,1953.745 1811.532,2032.135 1832.15,2033.775 1836.226,2014.341 1847.624,2034.998 1871.646,2036.913 1834.586,1913.932 
		1880.361,1937.627 1888.778,1934.646 1884.271,1928.027 1895.894,1932.124 1903.208,1929.527 1826.086,1885.73 1809.908,1836.774 	
		"/>
	<polyline opacity="0.5" clip-path="url(#SVGID_2_)" fill="#0E004F" points="793.027,1401.522 761.979,1454.085 721.34,1441.604 
		676.973,1464.601 680.319,1466.356 690.923,1466.04 690.334,1471.627 698.659,1476.006 731.223,1455.367 747.79,1461.211 
		721.407,1507.985 732.789,1518.361 743.905,1510.367 741.33,1526.137 754.591,1538.218 788.066,1458.589 804.327,1491.801 
		810.605,1494.174 810.928,1488.728 815.924,1496.181 821.383,1498.244 795.745,1440.33 808.219,1407.977 	"/>
	<polyline opacity="0.5" clip-path="url(#SVGID_2_)" fill="#0E004F" points="1944.32,1651.648 1981.282,1734.4 1936.591,1769.193 
		1929.748,1840.306 1934.255,1838.108 1941.826,1825.792 1947.791,1831.505 1959.031,1826.02 1959.744,1770.436 1978.83,1756.931 
		2012.668,1829.157 2033.046,1825.618 2032.218,1805.787 2048.338,1822.971 2072.088,1818.857 2005.95,1708.889 2056.133,1720.479 
		2063.548,1715.509 2057.558,1710.214 2069.825,1711.296 2076.271,1706.967 1990.783,1683.68 1963.074,1640.259 	"/>
	<polyline clip-path="url(#SVGID_2_)" fill="#190D55" points="1944.692,1654.639 1935.945,1533.747 1891.113,1524.954 
		1857.217,1448.022 1861.192,1447.407 1871.432,1456.266 1873.154,1445.543 1883.096,1443.994 1906.422,1507.37 1925.01,1509.568 
		1918.449,1402.946 1933.824,1392.772 1941.412,1416.151 1945.363,1385.146 1963.281,1373.29 1963.281,1545.836 1992.804,1497.479 
		1999.911,1498.02 1997.989,1508.286 2005.941,1498.479 2012.122,1498.943 1963.281,1585.399 1962.188,1654.639 	"/>
	<polyline clip-path="url(#SVGID_2_)" fill="#190D55" points="794.419,1409.891 787.66,1316.54 753.051,1309.754 726.874,1250.35 
		729.947,1249.867 737.85,1256.712 739.183,1248.435 746.854,1247.235 764.863,1296.175 779.218,1297.873 774.157,1215.548 
		786.028,1207.687 791.884,1225.738 794.933,1201.793 808.767,1192.643 808.767,1325.883 831.572,1288.541 837.063,1288.957 
		835.581,1296.874 841.71,1289.307 846.49,1289.664 808.767,1356.43 807.93,1409.891 	"/>
	<polyline clip-path="url(#SVGID_2_)" fill="#190D55" points="1788.146,1845.102 1777.188,1693.687 1721.033,1682.672 
		1678.579,1586.316 1683.574,1585.533 1696.381,1596.641 1698.534,1583.202 1710.993,1581.263 1740.21,1660.649 1763.494,1663.396 
		1755.277,1529.859 1774.537,1517.111 1784.039,1546.393 1788.984,1507.553 1811.425,1492.709 1811.425,1708.823 1848.402,1648.261 
		1857.316,1648.935 1854.913,1661.79 1864.854,1649.509 1872.6,1650.092 1811.425,1758.379 1810.058,1845.102 	"/>
	<g opacity="0.15" clip-path="url(#SVGID_2_)">
		<polygon fill="#FFFFFF" points="1690.64,1595.483 1703.455,1606.581 1705.608,1593.151 1714.837,1591.711 1710.993,1581.263 
			1698.543,1583.202 1696.381,1596.641 1683.574,1585.533 1678.579,1586.316 1721.033,1682.672 1723.974,1683.245 
			1685.646,1596.257 		"/>
		<polygon fill="#FFFFFF" points="1796.05,1517.502 1811.425,1507.328 1811.425,1492.709 1788.984,1507.553 1785.115,1537.893 
			1791.104,1556.343 		"/>
		<polygon fill="#FFFFFF" points="1768.35,1668.909 1762.343,1539.809 1778.438,1529.149 1774.537,1517.111 1755.277,1529.859 
			1763.494,1663.396 1740.21,1660.649 1740.21,1660.649 		"/>
		<polyline fill="#FFFFFF" points="1857.316,1648.935 1848.402,1648.261 1811.425,1708.823 1811.425,1708.823 1857.316,1648.935 		
			"/>
	</g>
	<path clip-path="url(#SVGID_2_)" fill="#FFF8DB" d="M1064.227,920.344c-0.869-2.872-2.377-6.211-5.343-6.561
		c-1.656-0.2-3.247,0.657-4.688,1.507c-21.406,12.664-39.414,31.081-51.641,52.812c0.125-11.29,0.249-22.58,0.373-33.87
		c0.025-1.865-0.273-4.213-2.037-4.804c-1.078-0.366-2.236,0.142-3.231,0.69c-11.729,6.535-16.998,21.713-14.38,34.936
		c2.625,13.221,11.887,24.377,22.962,31.988c11.075,7.602,23.931,12.097,36.705,16.219c-14.82,11.881-29.631,23.762-44.451,35.635
		c-4.332,3.481-9.162,8.359-7.654,13.721c0.812,2.906,3.322,4.953,5.683,6.811c7.919,6.194,15.838,12.397,23.757,18.601
		c1.325,1.023,2.717,2.182,3.147,3.805c0.432,1.624-0.231,3.322-0.969,4.837c-8.383,17.177-29.134,30.189-26.575,49.156
		c1.648,12.205,15.036,21.381,26.939,18.475c2.907-0.707,5.74-2.073,7.737-4.312c2.394-2.689,3.372-6.337,4.283-9.833
		c9.418-36.459,18.837-72.053,23.41-109.452C1063.341,999.116,1076.868,962.416,1064.227,920.344z"/>
	<path clip-path="url(#SVGID_2_)" fill="#FFF8DB" d="M1386.272,781.085c-10.71-0.899-21.256-3.73-30.989-8.317
		c-1.565-0.741-3.223-1.624-3.984-3.189c-1.905-3.846,2.708-7.609,6.676-9.2c22.482-9.025,48.5-8.792,70.826,0.633
		c-2.112-4.321-4.821-8.343-8.002-11.948c-3.977-4.487-2.551-11.49,2.634-14.496c14.074-8.159,29.547-14.245,44.534-9.383
		c4.391,1.415,8.456,3.738,12.873,5.112c9.774,3.039,20.319,1.199,30.384-0.691c10.064-1.891,20.585-3.797,30.401-0.866
		c2.277,0.683,4.489,1.715,6.543,3.022c8.451,5.412,3.513,18.684-6.427,17.485l-30.65-3.679
		c-11.953-1.45-15.067,16.526-3.247,18.815c12.476,2.414,25.671,2.864,38.172,2.373c26.242-1.015,53.818-4.379,78.321,3.738
		c6.578,2.182,8.507,10.699,3.72,15.736c-5.815,6.127-14.256,10.1-22.723,11.407c-12.947,1.998-26.076-1.008-38.833-3.997
		c-33.69-7.884-67.371-15.77-101.062-23.654"/>
	<path clip-path="url(#SVGID_2_)" fill="#FFF8DB" d="M1694.658,854.204c-4.234-3.564-7.522-8.16-9.717-13.247
		c-4.241-9.816,8.49-18.134,15.805-10.35l0,0c5.691,6.053,15.813,2.48,16.493-5.82l0.538-6.685c0.273-3.497,0.82-7.461,3.686-9.443
		c3.182-2.188,7.63-0.765,10.694,1.583c11.44,8.758,11.218,25.793,16.775,39.131c8.557,20.516,31.362,31.705,53.347,34.319
		c8.798,1.041,18.788,1.515,24.553,8.276c1.773,2.09,2.916,4.521,3.778,7.111c2.56,7.667-4.739,14.962-12.31,12.223l-20.081-7.278
		c-9.873-3.58-17.577,9.267-9.675,16.228c5.716,5.045,12.791,9.108,19.632,12.156c10.487,4.671,22.068,9.2,30.634,16.435
		c6.139,5.187,3.007,15.636-4.954,16.645c-16.17,2.03-33.251-2.365-47.614-10.541c-18.837-10.733-33.698-27.276-47.06-44.411"/>
	<path clip-path="url(#SVGID_2_)" fill="#FFF8DB" d="M1115.976,979.375c17.379-11.381,30.219-29.398,35.91-49.423
		c2.203-7.751-6.868-14.029-13.445-9.425c-10.354,7.26-20.162,15.304-29.299,24.054c-6.527,6.253-17.396-0.15-14.521-8.733
		c1.789-5.338,4.796-10.325,8.689-14.338c3.57-3.68,7.745-6.627,12.285-8.925c7.141-3.613,6.709-13.771-0.845-16.401
		c-0.116-0.042-0.232-0.084-0.356-0.126c-5.766-1.998-7.919-9.017-4.176-13.846c11.035-14.245,29.797-22.471,47.665-20.298
		c4.929,0.599,9.601-2.622,9.981-7.592c0.315-4.213-0.985-9.009-2.999-12.772c-3.736-7.002-9.095-14.445-6.941-22.089
		c1.061-3.796,3.868-6.835,6.709-9.558c8.434-8.06,18.142-14.771,28.62-19.841c5.782-2.789,12.45,1.773,12.318,8.209l-0.737,38.332
		c-0.025,1.24-0.025,2.573,0.662,3.605c1.699,2.556,5.65,1.265,8.243-0.358c31.329-19.649,55.591-52.495,91.477-61.22
		c2.477-0.607,5.309-1.025,7.396,0.457c4.863,3.447,0.066,10.94-4.705,14.521c-24.089,18.125-49.768,34.11-76.632,47.723
		c-9.733,4.929-20.816,11.091-22.656,21.88l32.041-10.59c8.649-2.855,15.475,7.919,9.096,14.455
		c-2.345,2.406-4.92,4.629-7.422,6.644c-14.39,11.623-28.787,23.254-43.183,34.877"/>
	<path clip-path="url(#SVGID_2_)" fill="#FFF8DB" d="M1642.752,752.994c11.971,3.022,24.661,7.127,36.332,3.064
		c3.156-1.1,6.562-3.572,6.205-6.911c-0.24-2.306-2.236-4.005-4.217-5.179c-5.26-3.114-11.581-4.346-17.611-3.438
		c-2.36,0.358-4.704,1.033-7.09,0.949c-5.916-0.191-10.596-4.82-15.624-7.968c-13.312-8.359-30.965-6.594-45.121,0.225
		c-2.377,1.142-4.714,2.432-7.273,3.056c-14.33,3.53-26.242,11.256-4.423,10.716
		C1603.984,746.999,1623.136,748.057,1642.752,752.994z"/>
	<path clip-path="url(#SVGID_2_)" fill="#FFF8DB" d="M1837.567,887.482c2.32,0.558,4.771,1.049,7.092,0.466
		c2.319-0.583,4.473-2.54,4.506-4.954c0.05-4.446-6.097-5.812-10.438-4.937c-4.341,0.874-9.684,2.198-12.525-1.216
		c-1.457-1.756-1.64-4.222-2.468-6.353c-3.578-9.3-28.977-12.563-25.887,0.116C1799.761,878.448,1830.659,885.833,1837.567,887.482z
		"/>
	<path clip-path="url(#SVGID_2_)" fill="#FFF8DB" d="M1208.306,776.623c-5.616-3.813-4.349-13.954,1.873-16.66
		c6.229-2.707,14.214,2.647,14.578,9.458c0.075,1.341-0.083,2.722,0.349,3.988c1.226,3.58,5.997,4.054,9.758,3.888
		c2.452,1.308,2.585,5.037,0.995,7.327c-1.59,2.282-4.283,3.473-6.81,4.604c-12.31,5.536-3.413,14.961-8.259,24.078
		C1211.669,801.834,1222.636,786.348,1208.306,776.623z"/>
	<path clip-path="url(#SVGID_2_)" fill="#FFF8DB" d="M1043.808,894.385c-4.572,7.269-8.118,6.752-15.44,7.81
		c-4.076,0.591-16.758-2.048-17.107,5.861c-0.239,5.478,7.745,4.313,11.275,6.852c4.514,3.247-1.044,7.161,5.658,7.718
		c3.62,0.301,26.167-16.543,28.404-19.308c3.629-4.47,6.337-12.056,1.441-16.876C1050.915,879.44,1047.536,888.473,1043.808,894.385
		z"/>
	<path clip-path="url(#SVGID_2_)" fill="#736CB0" d="M733.733,1047.697c0.555,5.737,2.435,12.522,7.935,14.137
		c3.976,1.176,8.458-1.256,10.388-4.945c1.939-3.695,1.624-8.275,0.008-12.121c-1.963-4.638-5.765-8.802-5.591-13.838
		c0.141-4.181,3.007-7.669,4.97-11.349c1.971-3.681,2.833-8.843-0.314-11.572c-0.929-0.808-2.112-1.3-2.907-2.24
		c-1.002-1.174-1.185-2.823-1.268-4.363c-0.332-6.411,0.065-19.398-7.937-22.238c-6.578-2.332-4.25,3.663-3.777,9.05
		C737.004,1008.017,731.803,1027.731,733.733,1047.697z"/>
	<path clip-path="url(#SVGID_2_)" fill="#736CB0" d="M240.928,975.521c-0.563-3.006-1.127-6.087-0.622-9.1
		c1.317-7.819,9.278-12.915,11.614-20.491c2.41-7.785-1.59-16.643,1.383-24.237c2.278-5.811,8.358-12.13,4.515-17.035
		c-1.824-2.323-5.103-2.78-8.036-2.848c-7.463-0.191-15.813,1.424-20.146,7.536c-8.093,11.431,3.662,28.258-2.07,41.055
		c-0.944,2.115-2.378,4.413-1.541,6.569c0.546,1.441,1.971,2.323,2.982,3.498c3.894,4.503,0.862,11.49-2.717,16.243
		c-3.587,4.746-7.911,10.341-6.08,16.012c2.252,6.935,11.481,7.892,18.729,7.567c1.093-0.049-4.896,44.195,7.414,27.318
		C254.405,1016.567,243.098,987.135,240.928,975.521z"/>
	<path clip-path="url(#SVGID_2_)" fill="#736CB0" d="M607.688,621.578c-0.92-8.31-10.993-11.972-19.3-12.181
		c-2.742-0.067-5.567,0.059-8.077,1.174c-2.319,1.041-4.201,2.855-6.379,4.172c-11.953,7.243-27.758-2.273-41.161,1.656
		c-6.478,1.898-12.542,6.944-19.16,5.578c-9.229-1.915-12.873-11.714-23.551-8.484c-8.797,2.665-14.62,16.427-13.535,25.136
		c1.947,15.653,11.639,13.005,24.18,8.584c16.766-5.911,33.043-18.6,50.92-20.923C562.119,624.925,610.67,648.579,607.688,621.578z"
		/>
	<path clip-path="url(#SVGID_2_)" fill="#736CB0" d="M402.543,669.677c1.126-7.511,7.662-14.304,15.217-14.213
		c2.121,0.026,4.299,0.6,5.948,1.95c7.72,6.318,0.779,14.761,3.016,21.597c3.901,11.923,3.362,2.265,12.508,6.195
		c11.548,4.954,10.173,19.099,0.563,30.581c-11.871,14.196-7.886,3.622-11.564-7.219c-3.197-9.433-6.577-8.143-14.943-15.436
		C406.577,687.278,401.143,679.068,402.543,669.677z"/>
	<path clip-path="url(#SVGID_2_)" fill="#736CB0" d="M2253.26,760.121l-34.808-19.341c-5.194-2.889-9.841-6.969-12.492-12.313
		c-8.267-16.653,7.514-29.683,22.267-34.62c7.464-2.498,16.716-3.639,22.283,1.939c8.325,8.327,1.293,23.255,6.064,34.038
		c0.115-0.042,0.231-0.092,0.339-0.133c10.67-4.396,22.043,2.322,22.987,13.871c0.133,1.69,0.348,3.364,0.671,5.003
		c2.792,14.138,30.981,70.562-3.089,66.125C2249.979,811.108,2278.732,774.283,2253.26,760.121z"/>
	<path clip-path="url(#SVGID_2_)" fill="#736CB0" d="M2666.592,1146.684c-2.345-22.738-3.611-45.583-3.803-68.447
		c7.969,8.643,9.377,22.705,3.288,32.771c1.849,1.708,4.664,2.282,7.034,1.433c2.021,19.124,2.368,38.433,1.01,57.615
		c-12.657-5.104-19.931-20.832-15.656-33.836"/>
	<path clip-path="url(#SVGID_2_)" fill="#736CB0" d="M2559.019,992.622c5.005-13.23-3.089-27.459-10.553-39.465
		c-7.464-11.997-14.771-27-8.384-39.623c1.094-2.156,2.61-4.337,2.361-6.751c-0.266-2.573-2.427-4.455-4.324-6.22
		c-18.803-17.484-21.803-49.547-6.561-70.253c1.293-1.766,2.999-3.597,5.186-3.614c2.982-0.017,4.805,3.23,5.766,6.07
		c4.158,12.389,4.226,26.126,0.174,38.557c-0.671,2.057-1.441,4.355-0.521,6.311c0.563,1.208,1.682,2.049,2.791,2.773
		c8.425,5.553,20.097,9.175,22.358,19.042c0.993,4.345-0.249,8.841-0.563,13.287c-0.944,13.23,6.553,25.919,16.608,34.503
		c10.058,8.576,22.474,13.771,34.667,18.825"/>
	<path clip-path="url(#SVGID_2_)" fill="#736CB0" d="M1208.969,1192.835c-0.63-11.765-1.26-23.53-1.889-35.286
		c-0.282-5.154,0.132-11.531,4.787-13.695c0.613,7.783-0.265,15.687-2.56,23.154c5.277-2.198,11.324,2.639,12.65,8.225
		c1.317,5.588-0.63,11.366-2.552,16.77c-0.463,1.29-0.978,2.663-2.079,3.464c-2.394,1.747-6.005-0.491-6.727-3.372
		c-0.729-2.882,0.448-5.861,1.6-8.601"/>
	<path clip-path="url(#SVGID_2_)" fill="#736CB0" d="M1799.661,1080.868c2.071-7.344,4.862-16.086,8.251-18.916
		c2.188-1.832,4.646-1.351,6.321-5.93c1.457-3.986,0.555-7.335-0.557-8.975c-1.391-2.031-2.956-3.612-4.688-4.704
		c-0.406-0.259-0.92-0.44-1.483,0.357c-1.599,2.29-0.273,5.496-0.828,8.918c-3.105,5.103-6.088,10.799-8.88,16.901
		c-0.919,2.022-1.848,4.146-2.501,6.427c-1.849,6.412-1.078,11.749-0.225,16.011c2.967-5.403,5.385-12.638,6.478-19.299"/>
	<path clip-path="url(#SVGID_2_)" fill="#190D55" d="M1790.499,1778.136c-7.106-1.565-13.874-4.712-19.665-9.142
		c-1.259-0.958-2.51-2.03-3.181-3.472c-2.626-5.679,5.054-10.765,6.411-16.885c1.715-7.7-6.643-13.446-10.553-20.282
		c-3.537-6.178-3.297-14.337,0.597-20.289c0.562-0.859,1.25-1.708,2.211-2.032c1.136-0.391,2.361,0.041,3.479,0.458
		c3.521,1.331,7.107,2.706,10.023,5.095c2.907,2.397,5.086,6.029,4.755,9.792c-0.382,4.339-3.868,7.818-4.722,12.081
		c-1.98,9.824,10.296,18.284,8.407,28.124"/>
	<path clip-path="url(#SVGID_2_)" fill="#190D55" d="M1822.144,1608.996c-0.563-14.196,1.979-28.51,7.38-41.629
		c4.987,6.452,0.713,15.569-0.984,23.553c-0.638,2.989,0.033,7.235,3.073,7.419c-1.293,9.342-0.821,18.917,1.366,28.083
		c0.372,1.524,0.771,3.205,0.066,4.604c-1.532,3.048-7.455,6.02-10.073,6.945
		C1821.001,1629.876,1822.491,1617.938,1822.144,1608.996z"/>
	<path clip-path="url(#SVGID_2_)" fill="#190D55" d="M1951.709,1523.963c0.513-8.518,1.831-16.977,3.943-25.244
		c0.579-2.272,1.25-4.596,2.675-6.452c2.386-3.098,6.611-4.538,8.532-7.942c2.8-4.963-0.58-11.082-0.414-16.769
		c0.175-6.12,4.506-11.906,3.206-17.884c-1.325-6.087-7.745-9.357-13.453-11.799c-1.747-0.748-3.719-1.506-5.509-0.856
		c-3.66,1.332-3.048,7.052-0.348,9.874c2.709,2.83,6.651,4.379,8.855,7.619c3.04,4.462,1.772,10.465,0.389,15.693
		c-2.261,8.584-4.522,17.177-6.792,25.761"/>
	<path clip-path="url(#SVGID_2_)" fill="#190D55" d="M1917.555,1544.245c-0.943-2.413-3.959-3.072-6.527-3.389
		c-5.575-0.683-11.149-1.374-16.733-2.056c11.581-4.081,46.355,3.205,32.688,20.623
		C1916.594,1553.245,1921.101,1553.287,1917.555,1544.245z"/>
	<path clip-path="url(#SVGID_2_)" fill="#190D55" d="M1391.16,1096.421c0.124-0.925,0.297-1.882,0.812-2.665
		c1.259-1.873,3.894-1.997,6.139-2.082c4.092-0.141,8.233-0.765,11.92-2.556c3.678-1.789,6.875-4.846,8.192-8.741
		c0.588-1.756,0.729-3.872-0.438-5.32c-0.68-0.85-1.708-1.333-2.742-1.648c-6.62-2.016-14.405,3.181-15.127,10.091
		c-0.124,1.199-0.174,2.604-1.167,3.28c-0.663,0.441-1.524,0.392-2.312,0.341c-3.52-0.2-7.057,0.117-10.479,0.925
		c-1.201,0.283-2.468,0.683-3.23,1.647c-1.251,1.558-0.704,3.83-0.182,5.754c1.764,6.452,3.23,13.913,2.112,20.59
		C1391.838,1114.938,1390.448,1101.883,1391.16,1096.421z"/>
	<path clip-path="url(#SVGID_2_)" fill="#190D55" d="M1586.746,1226.005c1.168-0.5,2.478-0.583,3.67-1.024
		c6.063-2.231,5.351-10.974,7.994-16.894c0.621-1.398,1.582-2.773,3.022-3.288c3.264-1.166,6.296,3.164,5.427,6.535
		c-0.871,3.38-3.936,5.629-6.752,7.66c-2.816,2.032-5.815,4.463-6.395,7.893c-0.415,2.415,0.148,5.57-1.988,6.753
		c-1.409,0.766-3.164,0.092-4.713,0.491c-3.107,0.808-3.546,4.962-3.604,8.193c-0.058,3.213-1.458,7.442-4.655,7.201
		c-4.771-0.367-18.58-5.836-15.466-6.46c4.523-1.542,10.197-1.134,14.224-4.155
		C1581.801,1235.696,1581.668,1228.178,1586.746,1226.005z"/>
	<path clip-path="url(#SVGID_2_)" fill="#190D55" d="M814.748,1253.756c-0.961,3.287-1.938,6.643-1.789,10.065
		c0.099,2.23,0.671,4.413,0.903,6.636c0.256,2.505,0.091,5.037,0.339,7.535c0.249,2.506,0.986,5.079,2.75,6.868
		c0.356,0.359,0.795,0.708,1.301,0.691c0.455-0.018,0.836-0.316,1.185-0.6c0.977-0.783,1.954-1.623,2.501-2.747
		c0.555-1.134,0.546-2.624-0.332-3.514c-1.193-1.2-3.645-1.116-4.051-2.766c-0.355-1.473,1.351-2.488,2.593-3.337
		c2.004-1.357,3.455-3.938,2.619-6.22c-0.374-1.008-1.136-1.815-1.69-2.748c-3.007-5.062,0.944-11.839-1.102-17.367
		c-0.265-0.717-0.654-1.425-1.301-1.824c-1.126-0.699-2.683-0.199-3.569,0.774c-0.895,0.981-1.268,2.322-1.557,3.614
		c-0.953,4.22-1.318,8.641-0.473,12.879c0.854,4.247,3.007,8.317,6.428,10.95"/>
	<rect x="-0.003" clip-path="url(#SVGID_2_)" fill="none" width="2850.003" height="2005.158"/>
</g>
</svg>
