<svg height="512pt" viewBox="-77 0 512 512.00113" width="512pt" xmlns="http://www.w3.org/2000/svg"><path d="m167.40625 65.046875c-65.246094-1.054687-158.457031 24.246094-166.742188 133.875-8.285156 109.628906 63.097657 165.511719 100.457032 237.179687 26.929687 51.65625 47.644531 75.898438 89.070312 75.898438 48.675782 0 140.355469-99.210938 134.632813-252.992188-5.175781-139.148437-82.859375-192.757812-157.417969-193.960937zm0 0" fill="#ffc369"/><path d="m175.492188 65.382812c29.789062 24.882813 48.664062 61.007813 68.324218 98.800782 21.363282 41.074218 43.488282 83.429687 81.175782 116.082031.144531-6.957031.101562-14.058594-.167969-21.257813-4.988281-134.113281-77.347657-188.769531-149.332031-193.625zm0 0" fill="#ffaa5f"/><path d="m170.289062 432.328125c-47.367187-89.472656-141.335937-146.359375-144.890624-261.664063-1.160157-37.582031 8.589843-56.433593 8.589843-56.433593-17.921875 20.039062-30.515625 47.539062-33.324219 84.691406-8.285156 109.628906 63.097657 165.511719 100.457032 237.179687 26.929687 51.65625 47.644531 75.898438 89.070312 75.898438 10.546875 0 23.101563-4.648438 36.257813-13.507812-19.730469-8.304688-38.339844-32.503907-56.160157-66.164063zm0 0" fill="#ffaa5f"/><path d="m357.878906 273.171875c.101563-48.046875-11.9375-233.59375-203.464844-240.664063 98.332032 47.199219 101.480469 178.171876 193.71875 245.476563 4.046876 2.953125 9.734376.195313 9.746094-4.8125zm0 0" fill="#96cd82"/><path d="m348.132812 277.984375c2.347657 1.710937 5.230469 1.511719 7.253907.058594-13.269531-37.773438-86.460938-230.878907-200.972657-245.535157 98.332032 47.199219 101.476563 178.171876 193.71875 245.476563zm0 0" fill="#7dbe81"/><path d="m154.121094 65.207031c4.527344-.175781 8.96875-.230469 13.285156-.160156 1.003906.015625 2.007812.078125 3.011719.113281-2.011719-34.820312-16.449219-60-17.105469-61.132812-2.269531-3.871094-7.230469-5.175782-11.105469-2.921875-3.871093 2.25-5.1875 7.21875-2.941406 11.101562.136719.242188 12.851563 22.632813 14.855469 53zm0 0" fill="#b67f5f"/><path d="m153.3125 4.03125c-2.273438-3.875-7.230469-5.179688-11.105469-2.925781-3.871093 2.25-5.191406 7.222656-2.941406 11.101562.046875.082031 1.515625 2.6875 3.519531 7.234375 1.308594 2.964844 4.242188 4.9375 7.484375 4.9375 5.902344 0 9.816407-6.125 7.421875-11.523437-2.363281-5.316407-4.160156-8.445313-4.378906-8.824219zm0 0" fill="#a06e50"/></svg>