<?xml version="1.0" encoding="UTF-8" standalone="no"?>
<!-- Created with Inkscape (http://www.inkscape.org/) -->

<svg
   xmlns:dc="http://purl.org/dc/elements/1.1/"
   xmlns:cc="http://creativecommons.org/ns#"
   xmlns:rdf="http://www.w3.org/1999/02/22-rdf-syntax-ns#"
   xmlns:svg="http://www.w3.org/2000/svg"
   xmlns="http://www.w3.org/2000/svg"
   xmlns:xlink="http://www.w3.org/1999/xlink"
   xmlns:sodipodi="http://sodipodi.sourceforge.net/DTD/sodipodi-0.dtd"
   xmlns:inkscape="http://www.inkscape.org/namespaces/inkscape"
   width="71.800804mm"
   height="60.785053mm"
   viewBox="0 0 71.800804 60.785053"
   version="1.1"
   id="svg8"
   sodipodi:docname="WrittenPortal.svg"
   inkscape:export-filename="C:\Users\Moi\Desktop\DesktopArea\DLMess\Portal Coloured.png"
   inkscape:export-xdpi="1423.6892"
   inkscape:export-ydpi="1423.6892"
   inkscape:version="0.92.3 (2405546, 2018-03-11)">
  <defs
     id="defs2">
    <linearGradient
       inkscape:collect="always"
       id="linearGradient4676">
      <stop
         style="stop-color:#efb200;stop-opacity:1"
         offset="0"
         id="stop4672" />
      <stop
         style="stop-color:#fffae9;stop-opacity:1"
         offset="1"
         id="stop4674" />
    </linearGradient>
    <linearGradient
       id="linearGradient4670"
       inkscape:collect="always">
      <stop
         id="stop4666"
         offset="0"
         style="stop-color:#6000ff;stop-opacity:1" />
      <stop
         id="stop4668"
         offset="1"
         style="stop-color:#ffbe00;stop-opacity:1" />
    </linearGradient>
    <linearGradient
       inkscape:collect="always"
       id="linearGradient4646">
      <stop
         style="stop-color:#6000ff;stop-opacity:1"
         offset="0"
         id="stop4642" />
      <stop
         style="stop-color:#ffbe00;stop-opacity:0.91326529"
         offset="1"
         id="stop4644" />
    </linearGradient>
    <linearGradient
       inkscape:collect="always"
       xlink:href="#linearGradient4646"
       id="linearGradient4648"
       x1="59.462429"
       y1="206.86095"
       x2="112.67788"
       y2="137.40063"
       gradientUnits="userSpaceOnUse"
       gradientTransform="translate(21.100521,11.046354)" />
    <linearGradient
       inkscape:collect="always"
       xlink:href="#linearGradient4670"
       id="linearGradient4656"
       x1="87.410591"
       y1="229.92813"
       x2="120.67549"
       y2="143.44998"
       gradientUnits="userSpaceOnUse"
       gradientTransform="translate(21.100521,11.046354)" />
    <linearGradient
       inkscape:collect="always"
       xlink:href="#linearGradient4646"
       id="linearGradient4664"
       x1="79.243782"
       y1="182.26099"
       x2="114.51464"
       y2="161.92479"
       gradientUnits="userSpaceOnUse"
       gradientTransform="translate(21.100521,11.046354)" />
    <linearGradient
       inkscape:collect="always"
       xlink:href="#linearGradient4676"
       id="linearGradient4678"
       x1="64.129852"
       y1="217.7276"
       x2="76.308365"
       y2="109.9099"
       gradientUnits="userSpaceOnUse"
       gradientTransform="translate(21.100521,11.046354)" />
  </defs>
  <sodipodi:namedview
     id="base"
     pagecolor="#ffffff"
     bordercolor="#666666"
     borderopacity="1.0"
     inkscape:pageopacity="0.0"
     inkscape:pageshadow="2"
     inkscape:zoom="1"
     inkscape:cx="90.285169"
     inkscape:cy="166.21651"
     inkscape:document-units="mm"
     inkscape:current-layer="layer1"
     showgrid="false"
     inkscape:object-paths="false"
     inkscape:snap-text-baseline="false"
     inkscape:snap-center="false"
     inkscape:window-width="1920"
     inkscape:window-height="1057"
     inkscape:window-x="-8"
     inkscape:window-y="-8"
     inkscape:window-maximized="1"
     inkscape:object-nodes="false"
     inkscape:measure-start="358.062,328.687"
     inkscape:measure-end="358.875,328.937" />
  <metadata
     id="metadata5">
    <rdf:RDF>
      <cc:Work
         rdf:about="">
        <dc:format>image/svg+xml</dc:format>
        <dc:type
           rdf:resource="http://purl.org/dc/dcmitype/StillImage" />
        <dc:title></dc:title>
      </cc:Work>
    </rdf:RDF>
  </metadata>
  <g
     inkscape:groupmode="layer"
     id="layer3"
     inkscape:label="Calque 3"
     transform="translate(-65.771916,-134.95387)" />
  <g
     inkscape:groupmode="layer"
     id="layer2"
     inkscape:label="Calque 2"
     transform="translate(-65.771916,-134.95387)" />
  <g
     inkscape:groupmode="layer"
     id="layer4"
     inkscape:label="Calque 1.5"
     transform="translate(-65.771916,-134.95387)" />
  <g
     inkscape:label="Calque 1"
     inkscape:groupmode="layer"
     id="layer1"
     transform="translate(-65.771916,-134.95387)">
    <g
       id="g1355"
       transform="translate(-31.485416,-23.283333)">
      <g
         transform="rotate(-125.72119,122.52947,181.9665)"
         id="g1177">
        <path
           inkscape:connector-curvature="0"
           style="opacity:1;fill:url(#linearGradient4656);fill-opacity:1;stroke:none;stroke-width:0.89301777;stroke-linecap:round;stroke-linejoin:round;stroke-miterlimit:4;stroke-dasharray:none;stroke-dashoffset:0;stroke-opacity:1;paint-order:fill markers stroke"
           d="m 112.56172,157.07023 -2.45884,0.0194 1e-5,0.001 a 30.232345,15.116172 89.548562 0 0 -0.0104,-0.001 30.232345,15.116172 89.548562 0 0 -14.87748,30.35047 30.232345,15.116172 89.548562 0 0 15.35388,30.11227 30.232345,15.116172 89.548562 0 0 0.0104,-8.7e-4 l 1e-5,7.8e-4 2.45884,-0.0194 -1e-5,-0.001 A 30.232345,15.116172 89.548562 0 1 97.694239,187.42059 30.232345,15.116172 89.548562 0 1 112.56173,157.07097 Z"
           id="path815-0" />
        <path
           inkscape:connector-curvature="0"
           style="opacity:1;fill:url(#linearGradient4648);fill-opacity:1;stroke:none;stroke-width:1.20000005;stroke-linecap:round;stroke-linejoin:round;stroke-miterlimit:4;stroke-dasharray:none;stroke-dashoffset:0;stroke-opacity:1;paint-order:fill markers stroke"
           d="m 130.60167,186.58043 a 36.845203,17.620792 89.548562 0 0 -0.0347,-1.39141 40.624966,20.312482 89.548562 0 0 -0.0306,-1.19611 36.845203,17.620792 89.548562 0 0 -14.56172,-33.43413 40.624966,20.312483 89.548562 0 1 11.29586,36.01689 40.624966,20.312483 89.548562 0 1 -11.06409,36.48867 36.845203,17.620792 89.548562 0 0 14.09568,-29.05748 40.624966,20.312482 89.548562 0 0 0.0597,-0.879 36.845203,17.620792 89.548562 0 0 0.17357,-2.69793 40.624966,20.312482 89.548562 0 0 0.0663,-3.8495 z"
           id="path855" />
        <path
           style="fill:#ffbe00;fill-opacity:1;stroke:none;stroke-width:0.5;stroke-linecap:butt;stroke-linejoin:miter;stroke-miterlimit:4;stroke-dasharray:none;stroke-opacity:1"
           d="m 127.32635,176.86225 -0.50581,-0.0281 -0.17963,0.4659 0.76408,0.0639 z"
           id="path4805-7"
           inkscape:connector-curvature="0"
           sodipodi:nodetypes="ccccc" />
        <path
           style="fill:#ffbe00;fill-opacity:1;stroke:none;stroke-width:0.5;stroke-linecap:butt;stroke-linejoin:miter;stroke-miterlimit:4;stroke-dasharray:none;stroke-opacity:1"
           d="m 126.89251,200.44775 -0.7276,-0.24805 0.17364,0.76068 0.46301,0.0661 z"
           id="path4805-1"
           inkscape:connector-curvature="0"
           sodipodi:nodetypes="ccccc" />
        <path
           style="fill:none;stroke:#ffbe00;stroke-width:0.69999999;stroke-linecap:butt;stroke-linejoin:miter;stroke-miterlimit:4;stroke-dasharray:none;stroke-opacity:0.99607843"
           d="m 105.11503,215.29714 0.88867,4.43166"
           id="path5003"
           inkscape:connector-curvature="0" />
        <path
           style="fill:none;stroke:#ffbe00;stroke-width:0.40000001;stroke-linecap:butt;stroke-linejoin:miter;stroke-miterlimit:4;stroke-dasharray:none;stroke-opacity:0.99607843"
           d="m 98.615168,205.23919 -1.016992,4.23333"
           id="path5005"
           inkscape:connector-curvature="0" />
        <path
           style="fill:#ffbe00;fill-opacity:1;stroke:none;stroke-width:0.5;stroke-linecap:butt;stroke-linejoin:miter;stroke-miterlimit:4;stroke-dasharray:none;stroke-opacity:1"
           d="m 100.85066,212.43044 -0.68864,0.3416 0.66217,0.4127 0.37311,-0.28202 z"
           id="path4805-1-8"
           inkscape:connector-curvature="0"
           sodipodi:nodetypes="ccccc" />
        <path
           style="fill:none;stroke:#ffbe00;stroke-width:0.5;stroke-linecap:butt;stroke-linejoin:miter;stroke-miterlimit:4;stroke-dasharray:none;stroke-opacity:1"
           d="m 100.13697,159.23551 -1.566865,2.05798 1.870885,1.14591"
           id="path4791"
           inkscape:connector-curvature="0" />
        <path
           style="fill:none;stroke:#ffbe00;stroke-width:0.69999999;stroke-linecap:butt;stroke-linejoin:miter;stroke-miterlimit:4;stroke-dasharray:none;stroke-opacity:1"
           d="m 101.99651,159.77623 2.47892,-2.05798 -2.78294,-1.96443"
           id="path4793"
           inkscape:connector-curvature="0" />
        <path
           style="fill:none;stroke:#ffbe00;stroke-width:0.80000001;stroke-linecap:butt;stroke-linejoin:miter;stroke-miterlimit:4;stroke-dasharray:none;stroke-opacity:1"
           d="m 104.27372,153.77915 3.30729,-1.42213 1.85208,3.30729"
           id="path4795"
           inkscape:connector-curvature="0" />
        <path
           style="fill:none;stroke:#ffbe00;stroke-width:0.89999998;stroke-linecap:butt;stroke-linejoin:miter;stroke-miterlimit:4;stroke-dasharray:none;stroke-opacity:1"
           d="m 111.52187,155.72904 0.26459,-3.90261 4.03489,0.59532 -0.39687,3.5388"
           id="path4797"
           inkscape:connector-curvature="0" />
        <path
           style="fill:none;stroke:#ffbe00;stroke-width:0.69999999;stroke-linecap:butt;stroke-linejoin:miter;stroke-miterlimit:4;stroke-dasharray:none;stroke-opacity:1"
           d="m 116.84661,156.17552 3.10886,2.54661 1.68672,-2.18281"
           id="path4799"
           inkscape:connector-curvature="0" />
        <path
           style="fill:none;stroke:#ffbe00;stroke-width:0.47173449;stroke-linecap:butt;stroke-linejoin:miter;stroke-miterlimit:4;stroke-dasharray:none;stroke-opacity:1"
           d="m 123.89538,160.3906 -2.8504,0.5801 1.68382,2.53694 2.23327,-0.93807 z"
           id="path4801"
           inkscape:connector-curvature="0"
           sodipodi:nodetypes="ccccc" />
        <path
           style="fill:none;stroke:#ffbe00;stroke-width:0.5;stroke-linecap:butt;stroke-linejoin:miter;stroke-miterlimit:4;stroke-dasharray:none;stroke-opacity:1"
           d="m 125.87102,164.35563 -1.9513,1.32291 1.07487,2.21589"
           id="path4803"
           inkscape:connector-curvature="0" />
        <path
           style="fill:#ffbe00;fill-opacity:1;stroke:none;stroke-width:0.5;stroke-linecap:butt;stroke-linejoin:miter;stroke-miterlimit:4;stroke-dasharray:none;stroke-opacity:1"
           d="m 125.75694,165.77151 -0.45475,0.22324 0.20671,0.38034 0.43821,-0.23978 z"
           id="path4805"
           inkscape:connector-curvature="0" />
        <path
           style="fill:none;fill-opacity:1;stroke:#ffbe00;stroke-width:0.5;stroke-linecap:butt;stroke-linejoin:miter;stroke-miterlimit:4;stroke-dasharray:none;stroke-opacity:0.99607843"
           d="m 126.81112,169.56593 0.45442,2.88145 -3.07729,-2.11548"
           id="path4879"
           inkscape:connector-curvature="0" />
        <path
           style="fill:none;fill-opacity:1;stroke:#ffbe00;stroke-width:0.5;stroke-linecap:butt;stroke-linejoin:miter;stroke-miterlimit:4;stroke-dasharray:none;stroke-opacity:0.99607843"
           d="m 128.94122,178.73633 c 0.0264,-0.19983 -0.61912,-2.98078 -0.61912,-2.98078 l -3.30634,-0.79931 0.82988,3.86335"
           id="path4881"
           inkscape:connector-curvature="0" />
        <path
           style="fill:none;fill-opacity:1;stroke:#ffbe00;stroke-width:0.48064065;stroke-linecap:butt;stroke-linejoin:miter;stroke-miterlimit:4;stroke-dasharray:none;stroke-opacity:0.99607843"
           d="m 129.16735,184.0556 -0.23902,-2.50396 -3.01617,-0.85135"
           id="path4885"
           inkscape:connector-curvature="0" />
        <path
           style="fill:none;fill-opacity:1;stroke:#ffbe00;stroke-width:0.47740832;stroke-linecap:butt;stroke-linejoin:miter;stroke-miterlimit:4;stroke-dasharray:none;stroke-opacity:0.99607843"
           d="m 129.78283,186.29027 -1.13889,4.10917 -2.21783,-4.0759"
           id="path4887"
           inkscape:connector-curvature="0" />
        <path
           style="fill:none;fill-opacity:1;stroke:#ffbe00;stroke-width:0.46532449;stroke-linecap:butt;stroke-linejoin:miter;stroke-miterlimit:4;stroke-dasharray:none;stroke-opacity:0.99607843"
           d="m 126.33507,192.11423 -0.37049,3.5901 2.93542,0.41552"
           id="path4889"
           inkscape:connector-curvature="0" />
        <path
           style="fill:none;fill-opacity:1;stroke:#ffbe00;stroke-width:0.46823886;stroke-linecap:butt;stroke-linejoin:miter;stroke-miterlimit:4;stroke-dasharray:none;stroke-opacity:0.99607843"
           d="m 127.42596,202.70804 0.43826,-3.42657 -2.66089,-0.30721"
           id="path4891"
           inkscape:connector-curvature="0" />
        <path
           style="fill:none;fill-opacity:1;stroke:#ffbe00;stroke-width:0.55000001;stroke-linecap:butt;stroke-linejoin:miter;stroke-miterlimit:4;stroke-dasharray:none;stroke-opacity:0.99607843"
           d="m 127.11702,205.13819 -3.66619,-0.98768 -1.00359,3.64502"
           id="path4893"
           inkscape:connector-curvature="0" />
        <path
           style="fill:none;fill-opacity:1;stroke:#ffbe00;stroke-width:0.60000002;stroke-linecap:butt;stroke-linejoin:miter;stroke-miterlimit:4;stroke-dasharray:none;stroke-opacity:0.99607843"
           d="m 120.39692,211.62091 1.65369,-2.91039 3.33037,1.44336 -1.42402,2.76842"
           id="path4895"
           inkscape:connector-curvature="0" />
        <path
           style="fill:none;fill-opacity:1;stroke:#ffbe00;stroke-width:0.69999999;stroke-linecap:butt;stroke-linejoin:miter;stroke-miterlimit:4;stroke-dasharray:none;stroke-opacity:0.99607843"
           d="m 120.11196,214.07333 -2.0478,2.02729 2.01477,2.72486 2.17991,-2.79026 z"
           id="path4897"
           inkscape:connector-curvature="0" />
        <path
           style="fill:none;fill-opacity:1;stroke:#ffbe00;stroke-width:0.89999998;stroke-linecap:butt;stroke-linejoin:miter;stroke-miterlimit:4;stroke-dasharray:none;stroke-opacity:0.99607843"
           d="m 112.31765,218.48931 -3.38541,1.44225 4.11941,1.8028"
           id="path4899"
           inkscape:connector-curvature="0" />
        <path
           style="fill:none;fill-opacity:1;stroke:#ffbe00;stroke-width:0.69999999;stroke-linecap:butt;stroke-linejoin:miter;stroke-miterlimit:4;stroke-dasharray:none;stroke-opacity:0.99607843"
           d="m 107.91928,217.53117 -2.79467,-2.31511 -2.33164,1.95131 3.20808,2.62929 z"
           id="path4901"
           inkscape:connector-curvature="0" />
        <path
           style="fill:none;fill-opacity:1;stroke:#ffbe00;stroke-width:0.60000002;stroke-linecap:butt;stroke-linejoin:miter;stroke-miterlimit:4;stroke-dasharray:none;stroke-opacity:0.99607843"
           d="m 99.69146,215.20076 3.46114,-1.82412 -2.17491,-2.78294"
           id="path4903"
           inkscape:connector-curvature="0" />
        <path
           style="fill:none;fill-opacity:1;stroke:#ffbe00;stroke-width:0.55000001;stroke-linecap:butt;stroke-linejoin:miter;stroke-miterlimit:4;stroke-dasharray:none;stroke-opacity:0.99607843"
           d="m 98.668836,205.1473 -3.344209,1.70718 1.496708,3.11035 3.390985,-1.73057 z"
           id="path4905"
           inkscape:connector-curvature="0" />
        <path
           style="fill:none;fill-opacity:1;stroke:#ffbe00;stroke-width:0.5;stroke-linecap:butt;stroke-linejoin:miter;stroke-miterlimit:4;stroke-dasharray:none;stroke-opacity:0.99607843"
           d="m 95.44488,204.82017 -0.724969,-2.89988 3.157122,-0.65481"
           id="path4907"
           inkscape:connector-curvature="0" />
        <path
           style="fill:none;fill-opacity:1;stroke:#ffbe00;stroke-width:0.5;stroke-linecap:butt;stroke-linejoin:miter;stroke-miterlimit:4;stroke-dasharray:none;stroke-opacity:0.99607843"
           d="m 96.503731,195.86841 0.297657,3.10885 -3.638021,-0.16536 -0.297656,-3.04271"
           id="path4913"
           inkscape:connector-curvature="0" />
        <path
           style="fill:none;fill-opacity:1;stroke:#ffbe00;stroke-width:0.5;stroke-linecap:butt;stroke-linejoin:miter;stroke-miterlimit:4;stroke-dasharray:none;stroke-opacity:0.99607843"
           d="m 93.596353,190.07526 -0.03307,3.40651 3.274218,0.3638"
           id="path4915"
           inkscape:connector-curvature="0" />
        <path
           style="fill:none;fill-opacity:1;stroke:#ffbe00;stroke-width:0.5;stroke-linecap:butt;stroke-linejoin:miter;stroke-miterlimit:4;stroke-dasharray:none;stroke-opacity:0.99607843"
           d="m 93.541556,188.1948 2.546615,-4.26641 c 0,0 0,4.96094 0,5.09323"
           id="path4917"
           inkscape:connector-curvature="0" />
        <path
           style="fill:none;fill-opacity:1;stroke:#ffbe00;stroke-width:0.5;stroke-linecap:butt;stroke-linejoin:miter;stroke-miterlimit:4;stroke-dasharray:none;stroke-opacity:0.99607843"
           d="m 96.029532,181.29378 0.865285,-4.0458 -3.274052,-0.91205"
           id="path4919"
           inkscape:connector-curvature="0" />
        <path
           style="fill:none;fill-opacity:1;stroke:#ffbe00;stroke-width:0.5;stroke-linecap:butt;stroke-linejoin:miter;stroke-miterlimit:4;stroke-dasharray:none;stroke-opacity:0.99607843"
           d="m 94.696525,173.24896 3.344209,-3.95225 -0.514493,4.3732"
           id="path4921"
           inkscape:connector-curvature="0" />
        <path
           style="fill:none;fill-opacity:1;stroke:#ffbe00;stroke-width:0.74766749;stroke-linecap:butt;stroke-linejoin:miter;stroke-miterlimit:4;stroke-dasharray:none;stroke-opacity:0.99607843"
           d="m 117.15714,220.19425 -2.14725,-1.61103 -0.2842,3.28781"
           id="path4899-3"
           inkscape:connector-curvature="0"
           sodipodi:nodetypes="ccc" />
        <path
           inkscape:connector-curvature="0"
           style="opacity:1;fill:url(#linearGradient4678);fill-opacity:1;stroke:none;stroke-width:1.20000005;stroke-linecap:round;stroke-linejoin:round;stroke-miterlimit:4;stroke-dasharray:none;stroke-dashoffset:0;stroke-opacity:1;paint-order:fill markers stroke"
           d="m 112.24683,146.06788 -3.30409,0.026 1e-5,0.002 a 40.624966,20.312483 89.548562 0 0 -0.014,-0.001 40.624966,20.312483 89.548562 0 0 -19.991738,40.78369 40.624966,20.312483 89.548562 0 0 20.631908,40.46361 40.624966,20.312483 89.548562 0 0 0.0139,-0.001 l 1e-5,0.001 3.30409,-0.026 -2e-5,-0.002 A 40.624966,20.312483 89.548562 0 1 92.268524,186.85142 40.624966,20.312483 89.548562 0 1 112.24684,146.06887 Z"
           id="path815" />
        <path
           inkscape:connector-curvature="0"
           style="opacity:1;fill:#ffbe00;fill-opacity:1;stroke:none;stroke-width:1.20000005;stroke-linecap:round;stroke-linejoin:round;stroke-miterlimit:4;stroke-dasharray:none;stroke-dashoffset:0;stroke-opacity:1;paint-order:fill markers stroke"
           d="m 132.89217,186.53138 a 40.624966,20.312483 89.548562 0 0 -20.63191,-40.46361 40.624966,20.312483 89.548562 0 0 -19.991736,40.78369 40.624966,20.312483 89.548562 0 0 20.631906,40.46361 40.624966,20.312483 89.548562 0 0 19.99174,-40.78369 z m -2.28962,0.0945 a 36.845203,17.620792 89.548562 0 1 -17.32978,36.98299 36.845203,17.620792 89.548562 0 1 -17.910906,-36.70532 36.845203,17.620792 89.548562 0 1 17.330296,-36.98299 36.845203,17.620792 89.548562 0 1 17.91039,36.70532 z"
           id="ellipse817" />
        <path
           inkscape:connector-curvature="0"
           style="opacity:1;fill:#ffbe00;fill-opacity:1;stroke:none;stroke-width:0.89301777;stroke-linecap:round;stroke-linejoin:round;stroke-miterlimit:4;stroke-dasharray:none;stroke-dashoffset:0;stroke-opacity:1;paint-order:fill markers stroke"
           d="m 127.9256,187.18242 a 30.232345,15.116172 89.548562 0 0 -15.35388,-30.11227 30.232345,15.116172 89.548562 0 0 -14.877481,30.35047 30.232345,15.116172 89.548562 0 0 15.353881,30.11226 30.232345,15.116172 89.548562 0 0 14.87748,-30.35046 z m -1.70389,0.0703 a 27.419516,13.113066 89.548562 0 1 -12.8965,27.52205 27.419516,13.113066 89.548562 0 1 -13.328964,-27.31541 27.419516,13.113066 89.548562 0 1 12.896884,-27.52206 27.419516,13.113066 89.548562 0 1 13.32858,27.31542 z"
           id="ellipse817-4" />
        <path
           inkscape:connector-curvature="0"
           style="opacity:1;fill:url(#linearGradient4664);fill-opacity:1;stroke:none;stroke-width:0.89301777;stroke-linecap:round;stroke-linejoin:round;stroke-miterlimit:4;stroke-dasharray:none;stroke-dashoffset:0;stroke-opacity:1;paint-order:fill markers stroke"
           d="m 126.22105,187.21892 a 27.419516,13.113066 89.548562 0 0 -0.0258,-1.03547 30.232345,15.116172 89.548562 0 0 -0.0228,-0.89012 27.419516,13.113066 89.548562 0 0 -10.83656,-24.88105 30.232345,15.116172 89.548562 0 1 8.40617,26.8031 30.232345,15.116172 89.548562 0 1 -8.23369,27.15419 27.419516,13.113066 89.548562 0 0 10.48974,-21.62404 30.232345,15.116172 89.548562 0 0 0.0445,-0.65413 27.419516,13.113066 89.548562 0 0 0.12916,-2.00775 30.232345,15.116172 89.548562 0 0 0.0494,-2.86473 z"
           id="path855-6" />
        <path
           inkscape:connector-curvature="0"
           style="opacity:1;fill:#fff8e2;fill-opacity:1;stroke:none;stroke-width:1.20000005;stroke-linecap:round;stroke-linejoin:round;stroke-miterlimit:4;stroke-dasharray:none;stroke-dashoffset:0;stroke-opacity:1;paint-order:fill markers stroke"
           d="m 94.137586,159.21352 a 40.624966,20.312483 89.548562 0 0 -0.683678,1.59009 h 3.306257 a 40.624966,20.312483 89.548562 0 1 0.705385,-1.59009 z"
           id="path815-00" />
        <path
           inkscape:connector-curvature="0"
           style="opacity:1;fill:#fff8e2;fill-opacity:1;stroke:none;stroke-width:1.20000005;stroke-linecap:round;stroke-linejoin:round;stroke-miterlimit:4;stroke-dasharray:none;stroke-dashoffset:0;stroke-opacity:1;paint-order:fill markers stroke"
           d="m 98.585448,151.91037 a 40.624966,20.312483 89.548562 0 0 -3.343981,5.07462 h 3.308326 a 40.624966,20.312483 89.548562 0 1 3.343467,-5.07462 z"
           id="path815-9" />
      </g>
    </g>
  </g>
</svg>
